<?xml version="1.0" standalone="no"?>
<!DOCTYPE svg PUBLIC "-//W3C//DTD SVG 20010904//EN"
 "http://www.w3.org/TR/2001/REC-SVG-20010904/DTD/svg10.dtd">
<svg version="1.0" xmlns="http://www.w3.org/2000/svg"
 width="222.000000pt" height="227.000000pt" viewBox="0 0 222.000000 227.000000"
 preserveAspectRatio="xMidYMid meet">

<g transform="translate(0.000000,227.000000) scale(0.100000,-0.100000)"
fill="#000000" stroke="none">
<path d="M591 2260 c-175 -37 -324 -215 -416 -495 -50 -152 -66 -249 -58 -355
5 -79 4 -93 -12 -110 -18 -20 -18 -22 3 -66 12 -24 22 -49 22 -53 0 -5 -16
-15 -35 -21 -40 -13 -46 -37 -15 -65 29 -26 25 -47 -14 -73 -79 -54 -80 -122
-2 -209 121 -134 125 -175 27 -289 -56 -65 -76 -111 -66 -151 3 -15 41 -62 83
-106 72 -73 77 -81 77 -122 0 -47 -23 -81 -80 -116 -34 -22 -27 -23 30 -8 131
35 185 152 146 316 l-13 53 45 77 c69 120 97 221 79 285 -7 26 -6 39 4 53 17
23 18 65 2 116 -9 33 -9 42 5 57 26 29 47 88 47 133 0 23 -14 82 -31 131 l-31
90 99 198 c96 193 99 197 126 192 71 -12 171 65 252 196 l39 64 23 -44 c36
-69 81 -218 92 -305 l10 -80 -48 -109 c-49 -111 -98 -251 -90 -257 2 -2 47
-27 100 -55 l96 -52 48 102 c40 85 48 111 48 162 1 72 -20 139 -78 256 -33 67
-44 100 -49 159 -14 155 -68 308 -142 398 -67 82 -208 127 -323 103z"/>
<path d="M596 1249 c-14 -9 -16 -13 -5 -20 7 -4 13 -19 14 -33 0 -24 37 -46
405 -250 306 -170 407 -221 413 -211 5 10 67 -21 255 -127 136 -77 251 -144
256 -149 8 -7 -145 56 -469 194 -38 16 -60 31 -60 42 0 11 -30 29 -89 56 -49
21 -94 45 -100 53 -6 7 -69 44 -139 81 -103 53 -126 63 -117 45 6 -12 10 -23
8 -25 -2 -1 -97 38 -212 88 -191 83 -210 89 -221 74 -7 -10 -19 -15 -29 -11
-23 9 -21 -23 4 -63 23 -38 28 -41 278 -149 108 -47 199 -87 201 -90 2 -2 -6
-26 -18 -53 -11 -27 -21 -67 -21 -89 0 -45 24 -131 52 -186 28 -56 101 -130
148 -151 30 -13 39 -23 35 -34 -17 -43 -16 -67 5 -94 29 -37 72 -36 111 2 32
32 34 47 18 104 -9 32 -7 41 10 64 33 41 29 119 -8 171 -27 36 -107 106 -132
114 -7 2 -7 13 1 32 7 20 16 27 28 23 9 -2 196 -79 414 -171 219 -91 404 -166
412 -166 8 0 18 4 21 10 4 6 26 0 55 -15 27 -14 53 -25 58 -25 4 0 15 15 24
33 l16 34 -55 27 c-40 19 -53 31 -49 42 4 9 -3 24 -17 36 -34 31 -1182 686
-1344 767 -65 32 -122 39 -157 20z"/>
</g>
</svg>
