<?xml version="1.0" standalone="no"?>
<!DOCTYPE svg PUBLIC "-//W3C//DTD SVG 20010904//EN"
 "http://www.w3.org/TR/2001/REC-SVG-20010904/DTD/svg10.dtd">
<svg version="1.0" xmlns="http://www.w3.org/2000/svg"
 width="237.000000pt" height="213.000000pt" viewBox="0 0 237.000000 213.000000"
 preserveAspectRatio="xMidYMid meet">

<g transform="translate(0.000000,213.000000) scale(0.100000,-0.100000)"
fill="#000000" stroke="none">
<path d="M1608 2041 c-49 -103 -128 -183 -235 -239 -110 -57 -178 -77 -428
-127 -121 -24 -238 -49 -260 -56 -77 -22 -174 -80 -226 -137 -89 -97 -119
-184 -119 -340 1 -153 43 -235 218 -423 156 -169 226 -276 246 -378 16 -85
-47 -176 -140 -201 -63 -17 -83 -35 -31 -27 58 9 124 45 154 84 21 27 28 49
31 97 7 116 -62 241 -235 426 -126 135 -158 176 -189 243 -38 84 -48 162 -35
260 15 104 54 186 121 254 43 42 151 113 174 113 3 0 6 -140 6 -311 0 -357 7
-411 69 -506 47 -73 373 -387 444 -428 46 -27 61 -30 132 -30 68 0 88 4 130
28 57 30 193 152 182 163 -3 4 -39 -24 -78 -61 -89 -84 -152 -115 -234 -115
-104 0 -138 24 -363 247 -152 151 -205 210 -222 248 -40 89 -49 179 -50 482 0
270 1 283 20 293 10 5 123 31 251 56 319 63 443 109 551 204 26 22 49 40 52
40 14 0 275 -202 334 -258 l62 -60 0 -286 c0 -321 -10 -403 -61 -493 -32 -58
-33 -63 -20 -63 19 0 72 128 86 206 10 54 14 162 15 344 l1 265 34 -54 c19
-29 49 -92 67 -140 30 -80 32 -95 32 -211 1 -116 -2 -132 -32 -219 -33 -96
-39 -148 -8 -76 42 97 60 189 60 295 1 121 -14 181 -76 309 -33 69 -57 101
-132 176 -50 51 -145 132 -211 180 -66 49 -124 92 -129 96 -5 5 2 24 17 46 23
33 77 145 77 158 0 3 -3 5 -7 5 -5 0 -25 -36 -45 -79z"/>
<path d="M1371 2036 c-50 -80 -185 -175 -274 -191 -41 -8 -60 -25 -28 -25 54
0 177 61 246 121 33 29 95 110 95 123 0 17 -21 2 -39 -28z"/>
<path d="M421 1981 c-74 -114 -108 -249 -95 -378 3 -40 9 -73 13 -73 3 0 6 55
7 123 1 138 17 197 80 300 45 72 40 98 -5 28z"/>
<path d="M427 1618 c-21 -59 -28 -94 -20 -102 4 -4 15 19 24 51 9 32 20 66 24
76 4 10 3 17 -3 17 -6 0 -17 -19 -25 -42z"/>
<path d="M803 1528 c-24 -5 -43 -14 -43 -19 0 -6 8 -8 18 -5 9 3 49 10 89 16
113 16 207 -9 252 -66 26 -33 39 -25 16 10 -9 14 -40 37 -68 51 -43 21 -64 25
-136 24 -48 -1 -105 -5 -128 -11z"/>
<path d="M1566 1525 c-43 -15 -115 -80 -103 -92 5 -4 18 5 30 19 63 75 179 92
345 51 12 -3 22 -1 22 5 0 28 -225 42 -294 17z"/>
<path d="M762 1279 c-13 -5 -20 -13 -17 -19 4 -7 12 -7 25 0 23 12 70 13 89 1
11 -7 8 -14 -15 -34 -16 -14 -26 -28 -22 -32 4 -4 17 2 29 14 26 24 54 26 89
6 36 -21 117 -18 169 5 54 25 47 39 -9 16 -67 -27 -124 -21 -196 19 -63 35
-99 42 -142 24z"/>
<path d="M1705 1255 c-69 -40 -128 -46 -195 -19 -50 20 -64 12 -19 -11 49 -26
140 -31 179 -11 44 21 62 20 94 -5 39 -31 43 -17 5 16 -26 21 -30 28 -18 36
20 13 83 11 97 -3 6 -6 15 -8 19 -4 13 13 -29 36 -66 36 -22 0 -59 -14 -96
-35z"/>
<path d="M1566 973 c14 -32 28 -64 31 -72 4 -7 -4 -21 -17 -31 l-22 -17 119
-269 c118 -267 119 -269 149 -267 28 2 31 -2 68 -88 38 -87 38 -90 20 -104
-18 -13 -18 -14 -1 -15 20 0 77 27 77 36 0 4 -9 4 -19 1 -16 -4 -26 11 -60 88
-23 51 -41 96 -41 99 0 3 7 6 15 6 9 0 18 7 21 15 3 8 -47 136 -112 285 -92
209 -122 268 -134 264 -8 -3 -20 -8 -26 -10 -6 -3 -25 27 -42 66 -18 38 -36
70 -42 70 -5 0 2 -26 16 -57z m213 -348 c63 -141 112 -257 110 -259 -18 -16
-73 -36 -79 -29 -7 7 -98 209 -196 436 l-34 78 33 14 c17 8 37 14 43 15 6 0
61 -115 123 -255z"/>
<path d="M1220 912 c0 -19 40 -44 77 -49 32 -4 45 0 69 20 16 14 26 29 22 33
-5 4 -16 0 -25 -8 -33 -28 -61 -31 -99 -9 -39 23 -44 25 -44 13z"/>
<path d="M240 842 c0 -42 7 -72 25 -108 25 -50 129 -163 141 -152 3 4 -18 31
-48 60 -67 66 -99 130 -101 203 -3 73 -17 71 -17 -3z"/>
<path d="M1198 759 c-18 -10 -46 -31 -61 -47 -28 -29 -28 -31 -12 -55 18 -28
76 -71 118 -86 46 -18 104 -13 156 14 45 22 101 75 101 95 0 11 -90 90 -104
91 -80 8 -169 3 -198 -12z m79 -9 c20 -8 38 -8 57 0 31 11 86 -11 120 -49 19
-21 19 -22 -10 -52 -35 -38 -98 -69 -139 -69 -62 0 -178 80 -160 110 6 9 93
70 100 70 1 0 15 -5 32 -10z"/>
<path d="M570 412 c0 -5 9 -17 21 -28 31 -28 59 -89 59 -129 0 -19 5 -35 10
-35 13 0 13 45 0 90 -14 53 -90 138 -90 102z"/>
</g>
</svg>
