<?xml version="1.0" standalone="no"?>
<!DOCTYPE svg PUBLIC "-//W3C//DTD SVG 20010904//EN"
 "http://www.w3.org/TR/2001/REC-SVG-20010904/DTD/svg10.dtd">
<svg version="1.0" xmlns="http://www.w3.org/2000/svg"
 width="225.000000pt" height="225.000000pt" viewBox="0 0 225.000000 225.000000"
 preserveAspectRatio="xMidYMid meet">

<g transform="translate(0.000000,225.000000) scale(0.100000,-0.100000)"
fill="#000000" stroke="none">
<path d="M1 1733 c1 -285 4 -504 6 -488 2 17 10 66 19 110 87 448 464 808 919
879 84 13 53 14 -427 15 l-518 1 1 -517z"/>
<path d="M1280 2239 c162 -21 379 -109 505 -204 263 -198 419 -466 458 -790 2
-16 5 203 6 488 l1 517 -517 -1 c-334 -1 -495 -5 -453 -10z"/>
<path d="M1047 1814 c-3 -4 -3 -155 0 -335 l6 -329 -26 0 -27 0 0 -160 0 -160
65 0 65 0 0 150 c0 83 0 153 0 158 0 4 -11 8 -26 10 l-27 4 4 331 c4 294 2
332 -11 335 -9 1 -19 0 -23 -4z"/>
<path d="M1240 1611 c0 -16 -7 -34 -15 -41 -13 -11 -15 -64 -15 -364 0 -193 4
-357 9 -364 5 -9 26 -12 67 -10 l59 3 3 360 c2 304 0 364 -13 391 -8 18 -15
37 -15 43 0 6 -18 11 -40 11 -37 0 -40 -2 -40 -29z"/>
<path d="M816 1529 c-23 -28 -26 -39 -26 -115 l0 -84 45 0 45 0 0 96 c0 90
-10 134 -29 134 -5 0 -21 -14 -35 -31z"/>
<path d="M477 1453 c-4 -3 -7 -54 -7 -112 0 -147 -7 -181 -35 -181 -20 0 -22
-6 -28 -82 -4 -46 -7 -120 -7 -166 l0 -83 131 3 132 3 -3 95 c-1 52 -5 127 -9
165 -5 61 -9 70 -27 73 -27 4 -34 35 -34 159 0 118 -7 133 -64 133 -23 0 -46
-3 -49 -7z"/>
<path d="M1548 1340 c-103 -55 -145 -189 -92 -292 15 -28 14 -31 -5 -45 -30
-21 -27 -61 5 -73 14 -6 106 -10 204 -10 149 0 181 3 194 16 22 21 20 50 -4
67 -19 13 -19 17 -6 48 24 60 28 111 11 158 -22 63 -61 110 -109 132 -55 25
-149 24 -198 -1z m176 -69 c84 -56 90 -177 10 -240 -30 -23 -115 -29 -156 -10
-64 29 -93 141 -53 203 42 64 138 87 199 47z"/>
<path d="M760 955 l0 -125 75 0 75 0 0 125 0 125 -75 0 -75 0 0 -125z"/>
<path d="M1 518 l-1 -518 518 1 c470 1 509 2 427 14 -153 23 -329 94 -465 189
-86 61 -219 194 -279 281 -106 154 -172 329 -194 520 -2 17 -5 -203 -6 -487z"/>
<path d="M2240 996 c0 -84 -53 -261 -113 -381 -161 -322 -493 -558 -850 -604
-37 -5 145 -9 456 -10 l517 -1 0 515 c0 283 -2 515 -5 515 -3 0 -5 -15 -5 -34z"/>
<path d="M1595 825 c-44 -12 -113 -32 -152 -44 l-73 -22 0 -69 c0 -39 3 -70 8
-70 7 0 98 -25 221 -60 41 -11 80 -19 86 -16 7 2 20 34 30 71 16 58 17 75 6
127 -13 62 -30 109 -40 107 -3 0 -42 -11 -86 -24z"/>
<path d="M396 721 c-10 -11 -16 -28 -14 -38 7 -39 39 -43 370 -43 l316 0 4 50
3 50 -331 0 c-314 0 -332 -1 -348 -19z"/>
</g>
</svg>
