<?xml version="1.0" standalone="no"?>
<!DOCTYPE svg PUBLIC "-//W3C//DTD SVG 20010904//EN"
 "http://www.w3.org/TR/2001/REC-SVG-20010904/DTD/svg10.dtd">
<svg version="1.0" xmlns="http://www.w3.org/2000/svg"
 width="225.000000pt" height="225.000000pt" viewBox="0 0 225.000000 225.000000"
 preserveAspectRatio="xMidYMid meet">

<g transform="translate(0.000000,225.000000) scale(0.100000,-0.100000)"
fill="#000000" stroke="none">
<path d="M1655 2235 c-31 -11 -49 -12 -80 -4 -80 22 -166 -12 -242 -94 -78
-84 -100 -145 -139 -374 -32 -198 -72 -280 -159 -334 l-30 -19 26 0 c14 0 34
7 45 15 26 20 34 19 34 -5 0 -24 19 -19 69 18 36 27 35 19 -7 -37 -25 -33 -25
-34 -4 -29 30 8 28 -1 -12 -61 -38 -56 -32 -63 23 -29 l36 23 -33 -42 c-49
-62 -90 -93 -123 -93 -16 0 -29 -4 -29 -8 0 -4 60 -16 133 -26 l132 -19 165
37 c245 55 236 65 -36 40 l-61 -6 -13 75 c-10 62 -10 91 0 159 26 173 115 496
144 526 11 11 26 -5 85 -88 96 -133 218 -285 271 -335 53 -51 70 -83 70 -135
0 -66 -26 -101 -155 -208 -26 -22 -27 -26 -22 -80 13 -119 76 -301 130 -373
l32 -44 0 -155 0 -155 39 -62 c50 -82 69 -158 56 -238 -6 -38 -6 -63 0 -69 36
-36 50 110 31 326 -7 72 -10 132 -8 134 2 2 15 -40 30 -94 37 -133 112 -281
154 -305 l32 -19 -35 59 c-60 100 -102 268 -122 492 -8 82 -8 83 10 61 10 -13
21 -21 23 -18 2 2 -8 69 -24 149 -16 79 -32 161 -36 183 l-6 39 27 -22 c48
-38 53 -24 17 44 -19 36 -32 65 -28 65 3 0 17 -7 31 -16 13 -9 26 -15 28 -13
2 2 -11 49 -30 104 -18 55 -33 106 -33 113 -1 7 22 -3 50 -23 29 -20 54 -33
57 -31 2 3 -5 17 -16 33 -24 35 -62 109 -62 122 0 6 15 2 33 -9 48 -29 55 -24
19 13 -40 41 -40 48 -2 41 16 -4 42 -3 57 1 l28 7 -30 12 c-17 7 -36 20 -43
29 -12 14 -9 17 27 27 50 13 60 27 20 27 -63 0 -91 54 -114 223 -28 195 -147
404 -266 465 -44 23 -117 28 -164 10z m-486 -1056 c-29 -18 -44 -9 -19 11 15
11 26 15 29 8 2 -6 -3 -14 -10 -19z"/>
<path d="M125 1451 c-46 -20 -102 -79 -111 -117 -11 -43 2 -120 24 -152 12
-17 45 -42 74 -56 l52 -26 320 0 320 0 39 -37 38 -38 377 -3 c258 -3 374 0
367 7 -5 5 -219 42 -475 81 -458 70 -466 71 -545 110 -85 41 -157 96 -221 169
-21 24 -57 52 -79 62 -51 24 -129 24 -180 0z m159 -55 c98 -41 102 -167 6
-216 -83 -42 -175 -15 -213 63 -15 30 -17 43 -8 70 27 81 127 120 215 83z
m641 -306 c0 -18 -6 -26 -23 -28 -24 -4 -38 18 -28 44 3 9 15 14 28 12 17 -2
23 -10 23 -28z"/>
<path d="M450 1049 c-297 -24 -349 -41 -391 -133 -24 -52 -23 -90 0 -142 49
-108 203 -146 307 -78 22 14 61 55 88 90 76 100 206 190 312 214 81 19 80 18
54 45 -28 30 -35 30 -370 4z m-121 -97 c36 -20 71 -72 71 -108 0 -32 -41 -87
-80 -106 -127 -64 -272 57 -200 166 40 62 140 85 209 48z"/>
</g>
</svg>
