<?xml version="1.0" standalone="no"?>
<!DOCTYPE svg PUBLIC "-//W3C//DTD SVG 20010904//EN"
 "http://www.w3.org/TR/2001/REC-SVG-20010904/DTD/svg10.dtd">
<svg version="1.0" xmlns="http://www.w3.org/2000/svg"
 width="225.000000pt" height="225.000000pt" viewBox="0 0 225.000000 225.000000"
 preserveAspectRatio="xMidYMid meet">

<g transform="translate(0.000000,225.000000) scale(0.100000,-0.100000)"
fill="#000000" stroke="none">
<path d="M1095 2105 c-74 -16 -157 -48 -210 -80 -22 -13 -55 -32 -74 -41 -55
-28 -175 -153 -234 -244 -75 -115 -85 -139 -66 -151 12 -7 11 -9 -3 -9 -17 0
-38 -32 -52 -77 -7 -22 -6 -23 71 -23 43 0 84 -4 92 -9 11 -7 21 -170 21 -350
-1 -243 -7 -449 -13 -458 -6 -9 -40 -13 -113 -13 l-104 0 0 -46 0 -45 228 3
229 3 36 28 c38 29 55 52 60 84 1 10 6 24 10 30 5 8 -5 26 -25 48 -91 101
-153 205 -184 311 -31 107 -7 387 46 526 l21 57 77 25 c147 50 297 153 352
242 12 19 26 34 31 34 5 0 22 -21 39 -48 32 -53 68 -83 119 -100 41 -14 114
-16 158 -3 27 8 34 6 56 -17 13 -15 37 -49 52 -77 16 -27 33 -56 39 -64 5 -7
11 -18 12 -25 2 -6 12 -36 24 -66 27 -71 50 -205 50 -289 0 -91 -30 -207 -89
-345 -63 -147 -70 -180 -42 -195 16 -9 21 -9 21 0 0 8 4 8 15 -1 11 -9 30 -9
81 -1 193 30 263 188 264 596 0 146 -15 231 -58 333 -97 232 -308 405 -557
457 -87 18 -298 18 -380 0z m285 -35 c-13 -9 -12 -13 8 -29 12 -11 22 -24 22
-29 0 -15 -32 -24 -44 -12 -8 8 -6 9 5 5 26 -10 32 12 8 29 -23 15 -20 46 3
46 9 0 9 -3 -2 -10z m60 -32 c0 -18 -2 -20 -9 -8 -6 8 -7 18 -5 22 9 14 14 9
14 -14z m77 6 c-3 -3 -12 -4 -19 -1 -8 3 -5 6 6 6 11 1 17 -2 13 -5z m54 -3
c-9 -6 -11 -16 -7 -27 6 -15 4 -16 -5 -7 -14 14 -5 43 13 43 10 0 9 -3 -1 -9z
m64 -11 c-3 -5 -12 -10 -18 -10 -7 0 -6 4 3 10 19 12 23 12 15 0z m-298 -32
c-3 -8 -6 -5 -6 6 -1 11 2 17 5 13 3 -3 4 -12 1 -19z m185 0 c-7 -7 -12 -8
-12 -2 0 6 3 14 7 17 3 4 9 5 12 2 2 -3 -1 -11 -7 -17z m495 -416 c7 -8 11
-17 8 -20 -3 -4 -10 0 -15 7 -6 11 -9 10 -13 -5 -2 -10 -5 1 -5 26 0 25 3 36
5 26 3 -11 12 -26 20 -34z m-184 21 c-7 -2 -14 -14 -14 -26 -1 -21 -2 -21 -6
-2 -3 11 -10 23 -17 27 -6 4 3 7 19 7 17 0 24 -3 18 -6z m105 -13 c-7 -10 -14
-17 -17 -15 -4 4 18 35 25 35 2 0 -1 -9 -8 -20z m-75 -5 c-3 -9 -8 -14 -10
-11 -3 3 -2 9 2 15 9 16 15 13 8 -4z m45 -10 c-3 -3 -9 2 -12 12 -6 14 -5 15
5 6 7 -7 10 -15 7 -18z m-1198 -421 c0 -2 -9 -4 -21 -4 -11 0 -18 4 -14 10 5
8 35 3 35 -6z m23 -19 c-3 -9 -8 -14 -10 -11 -3 3 -2 9 2 15 9 16 15 13 8 -4z"/>
<path d="M1264 1854 c-45 -67 -247 -193 -360 -223 -49 -13 -62 -38 -89 -167
-21 -102 -33 -330 -17 -320 8 5 10 2 6 -8 -4 -11 2 -19 17 -26 23 -10 23 -10
2 -6 -20 4 -22 1 -17 -22 15 -62 47 -134 84 -189 51 -75 150 -175 167 -169 7
3 13 -1 13 -8 0 -16 110 -71 175 -87 36 -9 56 -9 88 1 74 22 193 90 255 145
81 74 129 150 171 270 33 94 35 107 35 225 0 88 -5 144 -18 190 -24 90 -91
229 -127 266 -29 30 -34 32 -88 27 -88 -8 -161 17 -223 77 -29 28 -53 50 -55
50 -1 0 -10 -12 -19 -26z m-269 -234 c-3 -5 7 -16 22 -24 15 -8 23 -15 18 -16
-18 0 -56 31 -50 41 4 5 8 9 11 9 3 0 3 -4 -1 -10z m252 -22 c-3 -7 -5 -2 -5
12 0 14 2 19 5 13 2 -7 2 -19 0 -25z m-177 12 c0 -5 -5 -10 -11 -10 -5 0 -7 5
-4 10 3 6 8 10 11 10 2 0 4 -4 4 -10z m77 -6 c-3 -3 -12 -4 -19 -1 -8 3 -5 6
6 6 11 1 17 -2 13 -5z m-62 -50 c6 -6 26 -15 44 -19 30 -6 51 -29 38 -42 -4
-3 -35 2 -71 11 -57 14 -69 14 -106 1 -53 -19 -60 -19 -60 0 0 8 22 26 50 40
54 27 64 30 55 15 -3 -5 1 -10 9 -10 10 0 16 9 17 23 0 14 3 17 6 7 4 -8 11
-20 18 -26z m42 -3 c-5 -2 -13 3 -18 10 -15 24 -10 30 9 12 10 -10 14 -20 9
-22z m30 17 c-3 -8 -6 -5 -6 6 -1 11 2 17 5 13 3 -3 4 -12 1 -19z m-190 -10
c-3 -8 -6 -5 -6 6 -1 11 2 17 5 13 3 -3 4 -12 1 -19z m243 -1 c10 -4 8 -6 -6
-6 -12 -1 -25 6 -28 15 -5 13 -3 14 6 7 7 -6 20 -13 28 -16z m71 6 c12 -16 12
-17 -1 -7 -8 6 -22 14 -30 17 -13 5 -12 6 1 6 9 1 23 -7 30 -16z m353 -34 c39
-31 19 -44 -37 -25 -40 14 -52 14 -102 1 -73 -19 -87 -19 -83 2 4 22 67 41
139 42 43 1 63 -4 83 -20z m-662 -179 c42 -25 88 -25 121 0 31 25 60 26 55 3
-6 -30 -77 -64 -125 -60 -45 5 -118 51 -108 68 9 13 21 11 57 -11z m520 0 c42
-25 86 -25 118 0 30 23 60 26 60 5 0 -21 -81 -65 -119 -65 -48 0 -128 50 -115
71 8 13 20 11 56 -11z m-265 -180 c15 -12 41 -20 63 -20 22 0 48 8 63 20 31
25 43 25 56 3 9 -15 12 -15 19 -5 7 11 10 10 16 -3 5 -13 1 -16 -22 -13 -17 2
-26 -2 -25 -9 2 -7 -3 -10 -10 -7 -7 2 -22 -4 -32 -14 -25 -23 -96 -16 -148
17 -37 23 -43 32 -30 44 11 11 24 8 50 -13z m-352 -20 c-3 -5 -1 -10 6 -10 8
0 9 -3 0 -13 -6 -8 -8 -17 -4 -20 3 -4 2 -7 -4 -7 -5 0 -10 14 -10 30 0 17 4
30 9 30 5 0 6 -4 3 -10z m642 4 c-3 -3 -12 -4 -19 -1 -8 3 -5 6 6 6 11 1 17
-2 13 -5z m-63 -47 c7 -6 6 -7 -4 -4 -8 2 -16 12 -17 23 -2 13 -1 15 4 4 3 -8
11 -19 17 -23z m76 18 c0 -20 -28 -31 -42 -17 -8 8 -5 9 11 5 15 -4 21 -1 21
11 0 9 2 16 5 16 3 0 5 -7 5 -15z m-266 -126 c19 -9 32 -9 55 1 26 11 35 10
57 -5 22 -14 30 -15 56 -4 24 10 31 10 38 -1 12 -20 4 -28 -39 -41 -32 -10
-42 -9 -65 6 -20 14 -30 15 -39 6 -13 -13 -56 -14 -76 -2 -9 6 -23 4 -38 -6
-20 -13 -30 -14 -63 -4 -22 6 -40 18 -40 26 0 21 15 26 44 15 18 -7 33 -5 53
5 34 18 27 17 57 4z m26 -141 c19 0 48 3 63 7 25 7 28 5 25 -11 -2 -12 -19
-25 -46 -34 -37 -13 -47 -13 -84 0 -27 9 -44 22 -46 34 -3 16 0 18 25 11 15
-4 44 -7 63 -7z m-43 -150 c-3 -8 -6 -5 -6 6 -1 11 2 17 5 13 3 -3 4 -12 1
-19z m-89 -23 c-3 -3 -9 2 -12 12 -6 14 -5 15 5 6 7 -7 10 -15 7 -18z m117 15
c-4 -6 -1 -17 5 -25 7 -9 8 -15 2 -15 -12 0 -24 29 -16 41 3 5 7 9 10 9 3 0 2
-5 -1 -10z m-72 -34 c18 -4 18 -4 -3 -3 -14 1 -25 8 -26 17 0 8 1 10 3 3 2 -6
14 -14 26 -17z m44 2 c-3 -8 -6 -5 -6 6 -1 11 2 17 5 13 3 -3 4 -12 1 -19z"/>
<path d="M224 1430 c-12 -4 -31 -21 -43 -36 -21 -26 -21 -31 -21 -531 l0 -505
34 -34 c40 -40 83 -45 134 -14 17 11 33 21 34 22 1 2 4 82 7 178 l6 175 57 3
c53 3 57 5 61 30 l4 27 2 -28 c1 -27 3 -28 49 -25 l47 3 0 55 0 55 -118 3
c-106 2 -118 4 -115 20 3 15 19 17 121 20 l117 3 -3 37 -2 37 -118 3 c-106 2
-118 4 -115 20 3 15 19 17 119 20 l116 3 0 39 0 40 -119 0 c-108 0 -119 2
-116 18 3 15 19 18 123 22 66 3 115 8 109 12 -6 4 -10 21 -8 38 l4 30 -115 0
c-108 0 -115 1 -115 20 0 19 7 20 118 20 l119 0 0 40 0 39 -116 3 c-101 3
-116 5 -119 21 -3 15 8 17 118 17 l121 0 -3 53 -3 52 -175 2 c-96 1 -185 -2
-196 -7z m24 -725 c-3 -3 -9 2 -12 12 -6 14 -5 15 5 6 7 -7 10 -15 7 -18z m76
-14 c1 -17 -1 -31 -6 -31 -4 0 -7 16 -6 35 1 42 9 39 12 -4z m-107 -18 c-3
-10 -5 -4 -5 12 0 17 2 24 5 18 2 -7 2 -21 0 -30z m68 -3 c-3 -5 -16 -10 -28
-9 -21 0 -21 1 -2 9 28 12 37 12 30 0z"/>
<path d="M1522 680 c-41 -27 -107 -61 -148 -76 -70 -25 -78 -26 -131 -14 -31
7 -95 32 -142 56 -46 24 -85 43 -86 41 0 -1 -8 -19 -18 -40 -9 -21 -17 -58
-17 -83 0 -85 -44 -147 -115 -162 -24 -4 -41 -14 -43 -24 -2 -9 30 -46 74 -87
119 -111 243 -162 394 -162 91 0 149 12 226 46 45 20 54 28 45 39 -9 11 -7 12
13 9 26 -5 43 7 135 93 60 57 64 84 12 84 -31 0 -83 36 -104 74 -6 11 -14 73
-17 138 l-5 116 -73 -48z m-142 -394 c0 -3 -4 -8 -10 -11 -5 -3 -10 -1 -10 4
0 6 5 11 10 11 6 0 10 -2 10 -4z m237 -28 c-3 -7 -5 -2 -5 12 0 14 2 19 5 13
2 -7 2 -19 0 -25z m-280 -30 c-3 -7 -5 -2 -5 12 0 14 2 19 5 13 2 -7 2 -19 0
-25z m191 -5 c-6 -7 -16 -13 -22 -13 -6 0 -3 5 6 11 10 5 15 17 12 27 -5 14
-4 14 4 2 8 -10 8 -18 0 -27z m-118 12 c0 -8 -2 -15 -4 -15 -2 0 -6 7 -10 15
-3 8 -1 15 4 15 6 0 10 -7 10 -15z m33 -5 c3 -11 1 -18 -4 -14 -5 3 -9 12 -9
20 0 20 7 17 13 -6z"/>
</g>
</svg>
