<?xml version="1.0" standalone="no"?>
<!DOCTYPE svg PUBLIC "-//W3C//DTD SVG 20010904//EN"
 "http://www.w3.org/TR/2001/REC-SVG-20010904/DTD/svg10.dtd">
<svg version="1.0" xmlns="http://www.w3.org/2000/svg"
 width="96.000000pt" height="96.000000pt" viewBox="0 0 96.000000 96.000000"
 preserveAspectRatio="xMidYMid meet">

<g transform="translate(0.000000,96.000000) scale(0.100000,-0.100000)"
fill="#000000" stroke="none">
<path d="M296 855 c-8 -8 -24 -15 -36 -15 -43 0 -60 -18 -60 -65 0 -37 -3 -44
-21 -47 -49 -7 -49 -69 0 -76 17 -3 21 -10 21 -37 0 -27 -4 -34 -21 -37 -30
-4 -47 -33 -33 -55 6 -10 21 -19 33 -21 17 -3 21 -10 21 -37 0 -27 -4 -34 -21
-37 -49 -7 -49 -69 0 -76 17 -3 21 -10 21 -38 0 -27 -4 -34 -19 -34 -47 0 -53
-57 -8 -78 23 -11 27 -19 27 -52 0 -29 5 -42 19 -50 26 -14 526 -14 552 0 17
10 19 22 19 114 0 83 3 105 15 110 10 4 15 20 15 51 0 31 -5 47 -15 51 -9 4
-15 19 -15 39 0 20 6 35 15 39 21 8 21 94 0 102 -11 5 -15 24 -15 81 0 74 0
75 -30 86 -18 7 -30 19 -30 29 0 31 -35 38 -180 38 -112 0 -145 3 -156 15 -9
8 -31 15 -49 15 -18 0 -40 -7 -49 -15z m84 -70 l0 -55 -35 0 -35 0 0 55 0 55
35 0 35 0 0 -55z m-88 -22 l3 -48 50 0 50 0 3 48 3 48 152 -3 152 -3 0 -340 0
-340 -240 0 -240 0 -3 330 c-1 181 0 336 3 342 2 7 18 13 34 13 29 0 30 -2 33
-47z m476 -86 c3 -62 1 -67 -18 -67 -18 0 -20 6 -20 71 0 62 2 70 18 67 14 -3
18 -16 20 -71z m-568 13 c0 -11 -6 -20 -14 -20 -18 0 -29 16 -21 30 11 18 35
11 35 -10z m595 -135 c0 -27 -4 -30 -32 -33 -32 -3 -33 -2 -33 33 0 35 1 36
33 33 28 -3 32 -6 32 -33z m-595 -15 c0 -21 -24 -28 -35 -10 -8 14 3 30 21 30
8 0 14 -9 14 -20z m570 -75 c0 -28 -4 -35 -20 -35 -16 0 -20 7 -20 35 0 28 4
35 20 35 16 0 20 -7 20 -35z m-570 -75 c0 -21 -24 -28 -35 -10 -8 14 3 30 21
30 8 0 14 -9 14 -20z m595 -15 c0 -27 -4 -30 -32 -33 -32 -3 -33 -2 -33 33 0
35 1 36 33 33 28 -3 32 -6 32 -33z m-27 -152 c-3 -84 -6 -98 -20 -101 -16 -3
-18 7 -18 97 0 95 1 101 20 101 20 0 21 -5 18 -97z m-570 14 c2 -10 -3 -17
-12 -17 -18 0 -29 16 -21 31 9 14 29 6 33 -14z"/>
<path d="M294 657 c-3 -8 -4 -45 -2 -83 l3 -69 170 0 170 0 0 80 0 80 -168 3
c-135 2 -168 0 -173 -11z m326 -72 l0 -65 -155 0 -155 0 0 65 0 65 155 0 155
0 0 -65z"/>
<path d="M290 450 c0 -5 11 -10 25 -10 14 0 25 5 25 10 0 6 -11 10 -25 10 -14
0 -25 -4 -25 -10z"/>
<path d="M380 450 c0 -6 50 -10 130 -10 80 0 130 4 130 10 0 6 -50 10 -130 10
-80 0 -130 -4 -130 -10z"/>
<path d="M290 390 c0 -5 11 -10 25 -10 14 0 25 5 25 10 0 6 -11 10 -25 10 -14
0 -25 -4 -25 -10z"/>
<path d="M380 390 c0 -6 50 -10 130 -10 80 0 130 4 130 10 0 6 -50 10 -130 10
-80 0 -130 -4 -130 -10z"/>
<path d="M290 330 c0 -5 11 -10 25 -10 14 0 25 5 25 10 0 6 -11 10 -25 10 -14
0 -25 -4 -25 -10z"/>
<path d="M380 330 c0 -6 40 -10 100 -10 60 0 100 4 100 10 0 6 -40 10 -100 10
-60 0 -100 -4 -100 -10z"/>
</g>
</svg>
