<?xml version="1.0" standalone="no"?>
<!DOCTYPE svg PUBLIC "-//W3C//DTD SVG 20010904//EN"
 "http://www.w3.org/TR/2001/REC-SVG-20010904/DTD/svg10.dtd">
<svg version="1.0" xmlns="http://www.w3.org/2000/svg"
 width="159.000000pt" height="318.000000pt" viewBox="0 0 159.000000 318.000000"
 preserveAspectRatio="xMidYMid meet">

<g transform="translate(0.000000,318.000000) scale(0.100000,-0.100000)"
fill="#000000" stroke="none">
<path d="M928 3168 c9 -9 15 -9 24 0 9 9 7 12 -12 12 -19 0 -21 -3 -12 -12z"/>
<path d="M1412 3138 c6 -18 28 -21 28 -4 0 9 -7 16 -16 16 -9 0 -14 -5 -12
-12z"/>
<path d="M543 3023 c-101 -53 -202 -155 -188 -191 3 -7 1 -10 -5 -7 -5 3 -14
-4 -20 -16 -7 -12 -8 -19 -2 -15 6 3 12 0 14 -6 3 -8 10 -3 18 11 7 14 22 34
33 45 25 27 12 2 -25 -45 -15 -20 -28 -41 -28 -46 0 -4 -11 -20 -24 -35 -14
-14 -23 -27 -21 -29 2 -2 -10 -22 -25 -44 -33 -46 -61 -101 -66 -130 -1 -11
-8 -47 -15 -79 -11 -56 -10 -62 19 -135 17 -42 33 -83 35 -91 9 -25 7 32 -3
80 -5 25 -5 49 0 53 4 5 11 -15 15 -45 4 -29 13 -64 20 -77 11 -22 12 -21 20
30 7 52 8 53 17 25 6 -16 7 -31 2 -35 -10 -7 -10 -29 -1 -81 9 -53 14 -169 6
-165 -3 3 -6 -13 -5 -35 1 -35 2 -37 12 -19 10 19 12 19 17 5 4 -11 3 -15 -4
-11 -6 4 -8 -3 -4 -22 4 -15 3 -23 -2 -18 -20 24 -32 15 -21 -16 16 -46 4 -44
-20 4 -16 31 -22 36 -22 20 0 -12 6 -23 13 -26 9 -3 9 -10 -3 -31 -13 -25 -15
-26 -27 -10 -7 10 -13 43 -14 73 l0 56 -49 -102 c-27 -57 -54 -103 -59 -103
-5 0 -13 -10 -17 -22 -3 -13 -15 -35 -25 -50 -11 -14 -18 -32 -16 -40 2 -7 1
-8 -1 -3 -3 6 -11 -12 -18 -40 l-12 -50 6 65 c3 36 11 85 18 110 7 24 12 45
10 47 -2 2 -19 -22 -39 -53 -33 -49 -37 -64 -37 -118 0 -66 23 -160 33 -136 3
8 6 -10 7 -40 1 -30 5 -64 9 -75 4 -11 4 -35 0 -53 -5 -22 -3 -42 6 -59 7 -14
11 -33 7 -42 -5 -12 -8 -8 -12 14 -6 29 -6 29 -18 8 -7 -12 -9 -29 -5 -39 4
-11 3 -15 -4 -11 -14 9 -14 7 -18 -328 -4 -259 -2 -287 11 -260 13 28 14 29
11 4 -5 -38 28 -36 44 4 7 18 19 36 26 40 7 4 13 14 13 22 0 7 3 15 8 17 11 5
42 77 42 99 0 11 5 29 10 39 16 30 11 130 -11 232 -6 25 -10 54 -9 65 5 43 1
56 -14 44 -20 -16 -20 -142 -1 -188 18 -44 18 -43 0 -43 -8 0 -14 3 -13 7 4
21 -41 214 -54 230 -5 7 -7 17 -3 23 4 7 8 29 9 50 2 27 -1 37 -11 33 -7 -3
-13 -1 -13 5 0 5 7 12 15 16 8 3 15 13 16 23 1 37 18 -21 18 -64 1 -57 18 -55
27 2 5 34 9 43 18 36 9 -8 12 -1 13 23 0 18 20 68 42 112 23 43 39 68 35 54
-3 -14 -6 -33 -7 -42 -1 -9 -4 -15 -7 -13 -13 8 -42 -57 -37 -83 3 -15 -3 -44
-15 -70 -15 -32 -19 -53 -14 -85 3 -23 8 -55 10 -72 2 -16 9 -58 15 -93 7 -34
9 -67 6 -72 -3 -6 -1 -10 5 -10 7 0 9 -8 5 -20 -5 -14 -2 -20 9 -20 9 0 16 -8
17 -17 0 -13 3 -11 10 6 12 31 1 91 -12 70 -6 -9 -9 1 -8 31 0 25 -7 74 -16
108 l-17 64 41 131 c42 131 61 174 146 335 24 46 49 109 56 140 16 78 0 360
-20 348 -3 -2 -7 8 -8 22 0 15 -4 50 -7 77 -5 41 -4 46 4 25 11 -23 31 -104
45 -175 3 -16 9 -79 12 -140 l7 -110 11 70 11 70 16 -37 c17 -38 22 -79 19
-138 -2 -26 -4 -30 -10 -17 -5 13 -10 1 -19 -41 -7 -33 -25 -86 -41 -118 -16
-33 -36 -75 -45 -94 -9 -19 -15 -26 -14 -15 1 11 -2 20 -7 20 -6 0 -10 -7 -10
-15 -1 -8 -7 -14 -14 -12 -7 1 -10 -2 -6 -8 3 -5 1 -10 -4 -10 -6 0 -10 -3
-10 -7 4 -23 -3 -35 -15 -30 -10 4 -14 0 -11 -13 2 -10 -5 -30 -16 -44 -10
-13 -19 -34 -19 -46 0 -11 -4 -19 -9 -16 -5 3 -11 -8 -13 -26 -5 -29 -4 -30
10 -12 14 18 14 18 8 -6 -3 -14 -6 -37 -6 -52 0 -20 -4 -26 -15 -22 -23 9 -19
-35 10 -112 19 -50 22 -70 14 -80 -11 -13 -3 -38 9 -30 4 2 7 -9 8 -26 1 -18
-2 -25 -7 -17 -18 29 -34 16 -36 -29 -1 -25 -8 -49 -15 -53 -7 -5 -13 -14 -13
-21 -1 -33 -30 -126 -47 -150 -10 -15 -18 -33 -17 -40 3 -19 -12 -51 -34 -70
-14 -12 -17 -23 -11 -40 4 -13 7 -29 6 -35 -4 -20 16 -15 21 5 2 9 4 2 3 -16
-1 -21 -5 -31 -13 -27 -7 2 -13 -2 -13 -10 0 -8 -7 -15 -16 -15 -9 0 -12 -5
-8 -13 5 -9 4 -9 -6 0 -11 10 -11 18 -2 38 16 35 6 31 -13 -5 -9 -16 -12 -30
-8 -30 5 0 13 -17 20 -37 6 -21 15 -46 18 -56 6 -13 3 -16 -9 -11 -9 3 -16 1
-16 -5 0 -8 14 -10 40 -7 22 3 40 1 40 -5 0 -13 43 -11 77 3 15 6 30 11 33 10
3 0 7 13 8 30 1 17 11 42 21 57 44 62 131 301 131 360 1 20 7 50 14 66 l13 30
8 -28 c10 -37 -8 -124 -40 -190 -14 -30 -25 -58 -25 -63 0 -5 -12 -31 -25 -59
-14 -27 -25 -56 -25 -62 0 -7 -4 -13 -8 -13 -5 0 -17 -19 -27 -42 -10 -24 -21
-47 -23 -52 -2 -5 0 -7 6 -5 11 4 37 38 102 133 42 62 56 60 18 -3 -37 -60
-121 -175 -135 -184 -7 -4 -13 -13 -13 -19 0 -6 3 -9 6 -5 4 3 13 -1 22 -9 8
-9 18 -11 21 -6 3 5 16 8 28 7 14 -1 29 7 39 23 8 13 18 21 21 18 3 -3 -2 -17
-11 -30 -9 -14 -16 -29 -16 -35 0 -18 33 -21 51 -5 11 10 19 14 19 9 0 -4 7
-1 17 6 13 11 17 11 20 2 6 -18 32 -16 39 2 4 8 1 21 -4 28 -6 7 -7 19 -3 26
6 8 10 2 15 -20 3 -17 2 -37 -4 -44 -25 -30 30 -34 67 -5 14 11 29 17 34 14 5
-3 6 2 2 11 -5 13 -7 14 -14 3 -7 -10 -9 -9 -9 5 0 10 8 17 19 17 11 0 23 5
27 12 4 6 3 8 -3 5 -18 -11 -40 50 -42 121 -1 13 -4 21 -8 19 -5 -3 -7 16 -6
41 2 46 1 45 -13 -18 -18 -77 -43 -136 -44 -105 -1 16 -4 13 -14 -10 -14 -30
-14 -30 -12 21 0 28 7 56 14 63 9 9 12 8 12 -5 0 -10 3 -15 6 -11 4 3 2 19 -4
35 -7 21 -6 44 4 83 8 30 12 68 10 84 -3 17 -8 65 -11 108 -4 43 -13 102 -21
130 -31 109 -33 121 -23 136 9 13 9 13 4 -3 -3 -11 -2 -22 3 -25 4 -3 15 -22
25 -41 9 -19 16 -28 16 -20 0 8 -6 26 -14 40 -8 14 -14 32 -14 40 0 9 5 6 13
-8 l13 -24 13 32 13 32 18 -46 c11 -25 22 -89 25 -143 l7 -97 17 53 c9 28 19
49 23 45 4 -4 8 6 9 22 2 43 3 48 12 62 4 8 11 26 15 40 l8 27 5 -28 c3 -15 3
-25 0 -22 -4 3 -12 -25 -19 -62 -14 -76 -25 -122 -46 -203 -8 -30 -18 -73 -21
-95 -6 -40 -6 -40 24 19 17 32 28 61 26 64 -3 2 0 14 6 26 7 11 11 24 11 27
-1 4 10 17 24 30 21 20 25 21 20 6 -4 -10 -7 -23 -7 -28 0 -6 -4 -8 -9 -5 -5
3 -8 0 -8 -7 2 -30 -26 -106 -37 -100 -6 4 -5 -1 2 -10 8 -9 10 -22 6 -29 -4
-7 -9 -66 -11 -133 -3 -109 -1 -124 19 -162 14 -26 30 -43 40 -43 10 0 27 -9
38 -20 17 -17 20 -17 20 -4 0 15 -29 74 -41 84 -8 7 -49 91 -49 102 0 4 7 8
15 8 8 0 15 -7 15 -16 0 -18 49 -128 55 -123 2 2 -1 24 -6 49 -5 25 -11 63
-13 84 -3 35 -2 37 8 17 7 -12 15 -19 18 -16 3 3 10 -8 16 -24 6 -17 7 -31 2
-31 -5 0 -11 8 -13 18 -3 9 -5 -1 -4 -23 0 -22 3 -44 6 -50 3 -5 4 -22 2 -38
-2 -17 3 -29 13 -33 13 -5 14 -9 5 -20 -9 -12 -9 -13 4 -8 12 4 15 19 14 65
-1 32 -6 59 -11 59 -4 0 -6 6 -3 14 3 8 1 58 -5 111 -8 69 -8 99 0 107 8 8 16
0 29 -28 10 -21 21 -40 24 -42 4 -2 5 -11 2 -22 -3 -10 0 -34 6 -53 8 -24 9
-42 1 -62 -9 -25 -9 -26 5 -15 13 11 14 8 8 -21 -3 -19 -15 -42 -27 -52 -17
-15 -19 -22 -9 -48 10 -25 9 -31 -8 -39 -13 -7 -19 -7 -19 -1 0 15 -50 -6 -66
-27 -10 -13 -28 -16 -105 -14 -52 1 -95 7 -97 12 -2 6 -15 10 -28 10 -17 0
-24 -6 -24 -19 0 -15 7 -19 33 -19 40 0 139 -12 150 -19 4 -2 7 1 7 7 0 16
270 -5 282 -23 4 -6 12 -4 23 6 15 16 14 17 -27 18 -24 1 -56 5 -73 9 -25 6
-27 8 -13 14 10 5 15 13 11 19 -4 6 2 8 16 4 18 -4 21 -2 17 16 -3 12 -3 16 0
10 3 -7 12 -13 20 -13 8 0 14 -4 14 -10 0 -5 14 -1 32 10 17 10 35 17 40 14 4
-3 3 6 -4 20 -6 14 -15 26 -20 26 -4 0 -8 4 -8 9 0 5 19 8 43 7 50 -3 121 29
113 50 -3 8 -1 14 4 14 10 0 90 160 90 179 0 6 5 11 11 11 6 0 9 9 6 20 -4 16
0 20 19 20 15 0 24 6 24 15 0 9 10 35 22 58 12 23 21 48 20 55 -2 6 4 12 13
12 8 0 15 5 15 10 0 6 9 10 20 10 24 0 25 4 4 35 -20 30 -3 34 26 5 11 -11 20
-16 20 -12 0 5 -9 17 -20 27 -22 20 -27 41 -7 29 7 -5 7 -1 -2 10 -14 17 -16
16 -34 -6 -14 -18 -16 -19 -9 -3 5 11 8 46 7 77 l-3 57 30 -6 30 -6 -18 29
c-17 26 -17 27 -1 15 15 -12 17 -11 17 3 0 9 -5 16 -11 16 -5 0 -8 4 -4 9 6
11 -30 25 -44 17 -5 -3 -9 0 -8 7 0 6 -1 23 -2 37 l-2 25 -13 -24 c-13 -23
-13 -23 -18 -3 -3 12 0 26 7 32 7 6 23 39 36 73 13 34 31 76 41 92 12 21 14
35 8 45 -8 12 -10 13 -10 1 0 -8 -2 -12 -5 -10 -6 7 17 69 26 69 4 0 9 -10 13
-22 4 -18 8 -20 18 -10 9 9 10 17 2 30 -6 9 -8 24 -4 32 4 8 13 28 19 44 10
25 14 26 28 15 14 -12 16 -12 8 1 -8 13 -7 13 8 1 15 -12 17 -11 17 2 0 9 -10
23 -21 31 -14 9 -19 21 -15 31 6 17 18 17 57 1 13 -6 16 2 18 48 1 30 -2 63
-7 73 -5 10 -17 32 -26 50 -9 17 -16 38 -16 47 0 14 -12 20 -32 17 -5 0 -8 5
-8 12 0 8 -4 7 -10 -3 -5 -8 -10 -22 -10 -30 0 -13 1 -13 10 0 8 13 10 12 10
-3 0 -11 4 -15 12 -11 7 4 8 3 4 -4 -3 -6 3 -16 14 -22 25 -14 26 -26 0 -33
-13 -3 -20 0 -20 10 0 8 -4 11 -10 8 -5 -3 -10 -2 -10 3 0 4 -14 23 -32 41
-22 23 -33 28 -39 19 -5 -8 -10 -3 -14 15 -4 15 -12 27 -17 27 -5 0 -27 18
-49 41 -38 40 -49 56 -28 44 13 -8 38 23 39 48 0 9 5 17 11 17 15 0 6 60 -15
102 -9 17 -16 37 -16 45 0 7 -8 26 -17 40 -17 25 -17 27 -1 21 12 -5 18 0 23
20 3 15 14 33 25 40 16 9 18 9 14 -2 -3 -8 7 -23 24 -35 16 -11 38 -40 47 -63
15 -37 19 -40 25 -23 8 23 -3 79 -21 103 -7 9 -29 33 -48 52 -26 26 -36 45
-37 70 -2 56 -13 90 -53 175 -49 101 -72 170 -65 190 4 8 2 21 -4 28 -8 10
-24 75 -26 110 -1 4 -5 8 -11 8 -5 1 -17 14 -26 29 -9 15 -38 48 -65 74 -39
39 -45 49 -33 58 11 8 11 9 -3 4 -10 -3 -18 -1 -18 4 0 6 -5 10 -11 10 -6 0
-28 13 -48 29 -66 52 -192 90 -244 74 -18 -5 -42 -7 -53 -3 -55 20 -114 18
-161 -7z m-92 -220 c-12 -20 -14 -14 -5 12 4 9 9 14 11 11 3 -2 0 -13 -6 -23z
m-19 -55 c-7 -7 -12 -8 -12 -2 0 14 12 26 19 19 2 -3 -1 -11 -7 -17z m-112
-68 c-6 -11 -8 -26 -4 -32 5 -7 3 -8 -6 -3 -9 6 -12 4 -8 -6 3 -8 0 -23 -7
-32 -25 -35 -24 9 1 52 25 41 44 58 24 21z m85 0 c-3 -5 -8 -18 -10 -27 -2
-10 -8 -29 -14 -43 -10 -22 -10 -21 -5 10 7 36 21 70 30 70 3 0 2 -4 -1 -10z
m21 -118 c-17 -16 -18 -16 -5 5 7 12 15 20 18 17 3 -2 -3 -12 -13 -22z m95
-65 c-10 -9 -11 -8 -5 6 3 10 9 15 12 12 3 -3 0 -11 -7 -18z m318 -94 c12 -25
16 -43 10 -43 -7 0 -5 -10 5 -25 27 -41 3 -27 -33 20 -19 24 -39 41 -45 38 -5
-3 -6 -1 -2 6 4 6 0 23 -9 38 -12 18 -13 23 -4 18 8 -3 7 -1 -2 7 -8 7 -18 21
-22 30 -13 35 81 -48 102 -89z m-59 -73 c-13 -8 -13 -12 4 -27 18 -17 18 -17
11 7 -8 25 -8 25 14 6 25 -23 28 -38 4 -29 -11 5 -14 3 -8 -6 6 -10 3 -11 -14
-2 -11 6 -25 20 -31 31 -13 24 -13 33 0 25 6 -3 10 1 10 9 0 9 -3 15 -7 15
-18 -3 -24 2 -17 12 4 7 14 4 28 -10 18 -19 19 -23 6 -31z m52 -5 c11 -20 11
-20 -11 0 -13 11 -28 29 -33 40 -11 20 -11 20 11 0 13 -11 28 -29 33 -40z
m343 -99 c8 -19 13 -47 10 -63 -2 -15 -6 -55 -9 -88 -5 -50 -4 -57 6 -40 7 11
14 31 16 45 7 48 12 33 12 -33 0 -54 3 -67 16 -67 8 0 13 -4 10 -9 -8 -13 19
-73 29 -64 4 5 6 1 3 -8 -3 -8 -2 -35 2 -59 6 -30 4 -56 -6 -84 -8 -23 -14
-59 -14 -81 1 -22 1 -49 1 -60 1 -35 -26 -117 -35 -108 -5 5 -6 2 -2 -5 4 -7
1 -23 -7 -35 -8 -12 -17 -38 -21 -57 l-7 -35 16 28 c23 40 24 33 4 -25 -10
-29 -18 -63 -19 -75 0 -12 -4 -24 -9 -27 -4 -3 -16 -31 -24 -63 -10 -33 -25
-63 -36 -70 -18 -12 -19 -10 -16 28 3 28 1 38 -7 33 -7 -5 -9 -2 -6 7 18 47
19 59 5 59 -10 0 -13 -8 -9 -26 4 -20 2 -25 -7 -19 -12 7 -12 -20 -1 -155 2
-20 -8 -71 -15 -78 -3 -3 -5 6 -5 21 0 14 -4 28 -9 31 -18 12 -73 121 -75 149
-2 18 -12 38 -27 50 -13 11 -23 24 -22 28 2 5 -4 9 -13 9 -11 0 -14 -5 -9 -17
8 -23 -3 -11 -45 47 -24 33 -31 38 -26 20 4 -14 -7 2 -24 35 -25 48 -34 82
-44 167 -7 59 -10 124 -7 145 l5 38 6 -35 c6 -35 6 -35 14 15 9 63 26 106 37
99 5 -3 9 -10 9 -15 0 -6 -5 -7 -10 -4 -7 4 -9 -2 -4 -19 3 -15 -1 -44 -11
-70 -9 -24 -15 -50 -12 -58 3 -7 6 -3 6 10 1 15 5 21 13 16 7 -4 8 -3 4 5 -7
11 13 74 52 160 l20 44 0 -38 c0 -23 -3 -33 -8 -25 -8 13 -21 -14 -26 -57 -1
-12 -8 -38 -14 -58 -20 -61 -4 -50 18 12 12 32 30 82 40 111 10 28 26 60 35
70 10 10 17 31 17 47 0 16 3 26 6 23 3 -3 2 -33 -2 -66 -5 -47 -10 -61 -25
-65 -11 -3 -19 -11 -18 -19 0 -10 2 -10 6 0 2 6 8 12 13 12 4 0 -10 -52 -32
-115 -37 -107 -63 -248 -49 -270 3 -5 6 -14 6 -20 1 -5 9 -27 18 -47 9 -20 14
-45 11 -55 -3 -10 -2 -14 3 -8 12 15 33 17 33 3 0 -6 3 -9 6 -5 4 3 -10 36
-30 72 -20 36 -36 78 -36 93 l1 27 14 -30 15 -30 -4 29 c-5 38 20 122 38 129
11 5 10 -8 -5 -61 -22 -77 -24 -96 -7 -86 8 5 9 0 5 -15 -3 -14 3 -31 19 -50
13 -16 24 -34 24 -40 0 -6 14 -20 32 -31 29 -17 32 -24 29 -59 -1 -21 3 -42 8
-46 6 -3 9 -11 5 -16 -10 -17 -31 24 -29 58 1 24 -6 39 -36 67 l-37 37 30 -73
c16 -40 30 -83 30 -96 0 -13 8 -26 17 -30 21 -7 32 -25 21 -32 -5 -3 0 -20 12
-38 11 -18 23 -31 26 -28 3 3 1 11 -5 18 -5 7 -9 45 -8 83 2 83 23 173 37 153
6 -8 7 -4 3 12 -3 14 1 45 9 70 8 25 15 41 15 35 1 -12 21 16 21 30 0 6 -5 3
-10 -5 -15 -22 -12 -1 8 58 10 29 21 50 24 46 4 -3 3 -17 -2 -30 -5 -13 -7
-24 -5 -24 9 0 34 58 71 165 42 124 48 196 21 259 -22 50 -34 40 -64 -52 -21
-63 -22 -65 -17 -22 4 38 2 42 -8 25 -22 -37 -80 -110 -93 -118 -16 -9 -55
-108 -55 -139 0 -28 -15 -12 -24 25 -5 22 -4 27 6 21 10 -5 10 -4 1 6 -13 14
18 109 62 188 14 24 22 49 18 55 -3 6 -1 7 5 3 8 -4 12 0 12 11 0 10 5 25 11
33 9 13 10 12 5 -2 -3 -10 -1 -18 4 -18 6 0 10 7 10 15 0 8 4 15 10 15 19 0
41 74 36 120 -4 35 -3 39 4 20 8 -19 8 -15 4 20 -3 25 -6 53 -7 63 -1 9 -4 17
-7 17 -3 0 -5 12 -5 28 -1 15 -4 38 -9 52 l-8 25 17 -22 c8 -13 22 -38 30 -57z
m-798 42 c-3 -8 -6 -5 -6 6 -1 11 2 17 5 13 3 -3 4 -12 1 -19z m163 -118 c0
-5 -5 -10 -11 -10 -5 0 -7 5 -4 10 3 6 8 10 11 10 2 0 4 -4 4 -10z m805 -242
c-4 -18 -11 -37 -16 -42 -5 -6 -9 -18 -9 -28 0 -11 -5 -15 -15 -12 -17 7 -19
38 -4 69 7 16 8 14 4 -10 l-6 -30 21 33 c11 18 20 37 20 42 0 6 3 10 6 10 3 0
3 -15 -1 -32z m-141 -46 c-4 -18 -10 -32 -15 -32 -4 0 -3 15 2 32 5 18 9 35 9
37 0 2 2 2 5 -1 3 -3 2 -19 -1 -36z m-565 -91 c1 -29 -6 -81 -15 -115 -18 -72
-124 -307 -135 -300 -4 2 -15 -6 -24 -18 l-17 -23 7 25 c6 24 5 24 -9 6 -9
-11 -16 -23 -16 -28 0 -4 -7 -8 -16 -8 -13 0 -14 3 -5 14 7 8 13 30 14 49 1
19 5 33 8 31 4 -2 9 3 12 11 4 10 1 12 -11 8 -14 -6 -15 -5 -2 9 8 9 18 14 23
11 4 -2 7 5 7 16 0 11 7 26 15 35 8 8 12 21 9 29 -3 8 0 18 7 23 8 5 10 3 4
-7 -5 -8 -4 -11 1 -6 5 5 9 12 9 15 0 4 8 19 18 33 28 43 37 86 33 175 -4 86
6 119 18 61 5 -24 9 -28 15 -18 7 11 11 7 14 -15 3 -18 5 -10 5 21 -1 85 2 94
17 55 7 -19 14 -59 14 -89z m-102 37 c-2 -13 -4 -3 -4 22 0 25 2 35 4 23 2
-13 2 -33 0 -45z m-240 20 c-3 -8 -6 -5 -6 6 -1 11 2 17 5 13 3 -3 4 -12 1
-19z m543 -3 c0 -19 -4 -23 -17 -18 -11 4 -12 8 -5 11 7 2 12 10 12 18 0 8 2
14 5 14 3 0 5 -11 5 -25z m-73 -82 c-3 -10 -5 -4 -5 12 0 17 2 24 5 18 2 -7 2
-21 0 -30z m-240 5 c-3 -8 -6 -5 -6 6 -1 11 2 17 5 13 3 -3 4 -12 1 -19z m-23
-112 c-12 -33 -28 -62 -35 -64 -11 -3 -10 -1 1 7 9 6 15 26 15 50 0 22 2 35 6
30 7 -12 22 27 20 56 -1 19 0 19 7 1 5 -12 1 -41 -14 -80z m467 71 c-10 -9
-11 -8 -5 6 3 10 9 15 12 12 3 -3 0 -11 -7 -18z m373 -18 c19 -15 25 -27 21
-43 -2 -11 -2 -15 1 -8 5 10 12 8 30 -9 30 -28 30 -34 -1 -35 -15 -1 -37 11
-60 33 -36 35 -44 53 -24 53 8 0 8 5 -1 15 -18 22 3 18 34 -6z m-406 -53 c-1
-14 -5 -23 -9 -20 -7 4 0 44 7 44 2 0 3 -11 2 -24z m-201 -48 c-3 -8 -6 -5 -6
6 -1 11 2 17 5 13 3 -3 4 -12 1 -19z m-290 -40 c-3 -8 -6 -5 -6 6 -1 11 2 17
5 13 3 -3 4 -12 1 -19z m1103 -32 c0 -3 -4 -8 -10 -11 -5 -3 -10 -1 -10 4 0 6
5 11 10 11 6 0 10 -2 10 -4z m-143 -118 c-3 -7 -5 -2 -5 12 0 14 2 19 5 13 2
-7 2 -19 0 -25z m-42 -20 c-9 -47 -26 -88 -36 -88 -5 0 -9 -8 -9 -17 0 -15 2
-15 14 -3 8 8 26 36 39 62 21 40 25 44 29 25 6 -30 -5 -69 -17 -65 -5 2 -11
-6 -13 -17 -3 -17 -1 -18 8 -5 10 13 11 12 6 -3 -3 -11 -9 -31 -13 -45 -3 -15
-13 -36 -21 -47 -13 -19 -14 -18 -9 10 3 17 8 39 12 50 3 11 -2 7 -11 -10 -10
-16 -28 -70 -41 -118 -13 -49 -30 -101 -38 -117 -8 -15 -12 -30 -8 -33 3 -3
-1 -13 -9 -21 -13 -12 -17 -11 -32 14 -10 18 -13 31 -6 35 5 3 10 1 10 -6 0
-29 18 10 33 70 18 74 15 89 -13 61 -21 -21 -57 -86 -43 -77 5 3 9 -3 9 -14 0
-21 -12 -26 -18 -7 -3 7 -7 5 -11 -6 -4 -11 -3 -15 4 -10 7 4 10 2 8 -5 -3 -7
-9 -13 -14 -13 -17 -2 -32 -31 -27 -52 3 -12 2 -18 -2 -14 -12 11 -25 79 -14
72 5 -3 9 2 8 12 -1 11 -2 42 -1 69 1 39 4 46 12 33 15 -27 25 -22 50 25 12
23 28 53 35 67 19 34 17 70 -3 93 -11 13 -12 17 -4 12 11 -6 13 -4 7 10 -4 11
-2 22 5 26 9 5 8 14 -6 36 -15 24 -12 23 22 -10 l40 -38 13 32 c12 28 15 29
21 13 3 -10 4 -23 1 -28 -3 -5 0 -6 6 -2 7 4 12 16 12 26 0 21 10 50 17 50 2
0 2 -15 -2 -32z m-988 0 c-3 -8 -6 -5 -6 6 -1 11 2 17 5 13 3 -3 4 -12 1 -19z
m845 -54 c-8 -14 -9 -13 -9 10 0 18 3 24 9 18 7 -7 7 -16 0 -28z m-1035 -106
c-3 -8 -6 -5 -6 6 -1 11 2 17 5 13 3 -3 4 -12 1 -19z m726 -48 c3 -11 2 -20
-3 -20 -4 0 -10 11 -12 25 -6 29 7 25 15 -5z m-68 -127 c-20 -49 -45 -100 -56
-112 -11 -12 -22 -30 -24 -41 -2 -11 -11 -30 -20 -42 -17 -22 -17 -22 -10 17
4 22 10 45 15 50 4 6 30 53 58 106 58 114 63 122 68 116 2 -2 -12 -44 -31 -94z
m285 76 c0 -5 -6 -8 -12 -6 -8 1 -15 -15 -19 -43 -3 -25 -7 -34 -8 -20 -1 14
-4 36 -8 49 -4 17 -3 22 5 17 7 -4 15 0 18 8 6 16 24 13 24 -5z m-828 -66 c3
-29 1 -53 -4 -53 -5 0 -6 -4 -3 -10 3 -5 1 -10 -5 -10 -7 0 -9 7 -6 16 3 9 6
39 6 66 0 65 6 59 12 -9z m257 -35 c1 -5 -3 -8 -7 -8 -4 0 -8 12 -9 28 -1 23
-1 24 7 7 5 -11 9 -23 9 -27z m-522 0 c-3 -7 -5 -2 -5 12 0 14 2 19 5 13 2 -7
2 -19 0 -25z m823 -73 c-17 -39 -23 -46 -31 -35 -8 11 -9 10 -4 -7 4 -14 2
-23 -4 -23 -6 0 -11 -5 -11 -10 0 -6 -9 -20 -20 -32 -28 -30 -25 -16 10 59 17
34 30 68 30 73 0 6 5 9 12 8 7 -2 12 2 13 7 0 6 5 17 10 25 20 31 16 -15 -5
-65z m-320 30 c0 -5 -5 -3 -10 5 -5 8 -10 20 -10 25 0 6 5 3 10 -5 5 -8 10
-19 10 -25z m546 -58 c-2 -7 -5 -4 -5 6 -1 10 -4 16 -8 14 -5 -3 -9 7 -10 21
l-1 27 15 -28 c8 -16 12 -34 9 -40z m-819 -9 c-3 -8 -6 -5 -6 6 -1 11 2 17 5
13 3 -3 4 -12 1 -19z m1042 -28 c11 -24 11 -24 -3 -6 -9 11 -16 24 -16 30 0
12 5 7 19 -24z m-360 -21 c-7 -19 -20 -42 -31 -52 -15 -15 -16 -22 -7 -40 7
-12 8 -19 4 -15 -4 4 -20 -7 -36 -23 -16 -16 -30 -27 -30 -24 -6 22 -2 34 18
60 13 17 32 39 43 50 10 11 24 35 31 53 6 18 13 31 15 29 2 -2 -1 -19 -7 -38z
m-792 9 c-3 -8 -6 -5 -6 6 -1 11 2 17 5 13 3 -3 4 -12 1 -19z m105 -34 c-6
-12 -9 -7 -9 16 0 23 3 28 9 16 5 -9 5 -23 0 -32z m-46 -120 c-4 -9 -9 -15
-11 -12 -3 3 -3 13 1 22 4 9 9 15 11 12 3 -3 3 -13 -1 -22z m723 -7 c12 -15
12 -17 -3 -11 -9 3 -16 13 -16 22 0 8 1 13 3 11 1 -2 9 -12 16 -22z m-891
-102 c-3 -3 -9 2 -12 12 -6 14 -5 15 5 6 7 -7 10 -15 7 -18z m860 -140 c-3 -3
-9 2 -12 12 -6 14 -5 15 5 6 7 -7 10 -15 7 -18z m-723 -62 c11 -37 13 -59 6
-61 -5 -2 -9 -9 -7 -15 1 -7 1 -9 -1 -4 -3 4 -11 7 -18 7 -11 0 -14 15 -12 65
1 36 5 65 9 65 4 0 14 -26 23 -57z m515 33 c0 -3 -4 -8 -10 -11 -5 -3 -10 -1
-10 4 0 6 5 11 10 11 6 0 10 -2 10 -4z m224 -23 c-4 -53 -6 -58 -13 -28 -7 31
-4 55 8 55 4 0 6 -12 5 -27z m-789 -42 c0 -35 -3 -47 -13 -44 -11 5 -8 62 5
86 7 12 8 8 8 -42z m1029 -42 c-3 -5 -13 -9 -22 -9 -13 0 -14 -2 -3 -9 10 -7
11 -12 1 -27 -9 -16 -11 -16 -6 -2 3 10 1 20 -4 23 -14 8 -12 42 2 51 7 4 8 3
4 -4 -4 -7 -2 -12 3 -12 6 0 11 10 12 23 l0 22 10 -23 c5 -13 7 -28 3 -33z
m-742 6 c-5 -31 -22 -44 -22 -18 0 15 17 43 26 43 1 0 -1 -11 -4 -25z m54 -53
c-17 -16 -18 -16 -5 5 7 12 15 20 18 17 3 -2 -3 -12 -13 -22z m594 -7 c-7 -9
-15 -13 -17 -11 -7 7 7 26 19 26 6 0 6 -6 -2 -15z m-360 -15 c0 -5 -2 -10 -4
-10 -3 0 -8 5 -11 10 -3 6 -1 10 4 10 6 0 11 -4 11 -10z m276 -67 c-10 -10
-19 5 -10 18 6 11 8 11 12 0 2 -7 1 -15 -2 -18z m-141 -103 c8 -13 -5 -13 -25
0 -13 8 -13 10 2 10 9 0 20 -4 23 -10z"/>
<path d="M1186 2004 c-4 -14 -5 -29 -2 -31 3 -3 8 7 12 21 3 15 4 29 1 32 -2
3 -8 -7 -11 -22z"/>
<path d="M1157 1991 c-4 -17 -3 -21 5 -13 5 5 8 16 6 23 -3 8 -7 3 -11 -10z"/>
<path d="M1096 1828 l-17 -33 20 24 c18 20 27 41 18 41 -1 0 -11 -15 -21 -32z"/>
<path d="M881 1739 c-6 -18 -9 -34 -7 -36 2 -2 9 10 15 28 6 18 9 34 7 36 -2
2 -9 -10 -15 -28z"/>
<path d="M806 1618 c-3 -7 -5 -20 -5 -28 0 -8 -4 -34 -9 -57 -5 -24 -6 -43 -2
-43 8 0 16 35 25 108 4 31 -2 44 -9 20z"/>
<path d="M822 1480 c0 -14 2 -19 5 -12 2 6 2 18 0 25 -3 6 -5 1 -5 -13z"/>
<path d="M1165 1350 c-4 -12 -5 -24 -2 -27 3 -2 8 5 12 17 4 12 5 24 2 27 -3
2 -8 -5 -12 -17z"/>
<path d="M604 1736 c-3 -8 -4 -23 -2 -33 3 -11 6 -6 9 15 6 34 2 42 -7 18z"/>
<path d="M1265 1305 c17 -46 24 -90 15 -93 -6 -2 -9 -16 -9 -30 2 -24 2 -25 6
-4 3 13 9 19 15 16 18 -11 3 80 -17 107 -14 20 -16 20 -10 4z"/>
<path d="M1425 3030 c-3 -5 -1 -10 4 -10 6 0 11 5 11 10 0 6 -2 10 -4 10 -3 0
-8 -4 -11 -10z"/>
<path d="M1425 2965 c-11 -13 -28 -24 -37 -25 -10 0 -18 -5 -18 -10 0 -6 12
-9 28 -8 24 3 27 0 27 -29 1 -40 17 -60 34 -40 9 11 8 17 -4 27 -19 16 -19 36
-1 43 9 4 12 15 9 31 -7 36 -15 38 -38 11z"/>
<path d="M1303 2938 c-33 -16 -28 -23 15 -23 35 0 37 1 23 17 -9 10 -16 18
-16 17 0 0 -10 -5 -22 -11z"/>
<path d="M1100 2899 c0 -5 5 -7 10 -4 6 3 10 8 10 11 0 2 -4 4 -10 4 -5 0 -10
-5 -10 -11z"/>
<path d="M280 2839 c0 -11 5 -17 10 -14 6 3 10 13 10 21 0 8 -4 14 -10 14 -5
0 -10 -9 -10 -21z"/>
<path d="M1440 2790 c0 -16 -4 -30 -9 -30 -5 0 -11 -9 -14 -20 -4 -15 2 -24
24 -36 30 -15 69 -11 69 7 0 6 5 7 10 4 6 -4 24 -4 40 0 23 5 30 12 30 31 0
13 -4 24 -10 24 -5 0 -10 -6 -10 -14 0 -8 -13 -16 -30 -18 -30 -4 -33 -1 -54
65 -3 9 -15 17 -26 17 -16 0 -20 -7 -20 -30z"/>
<path d="M285 2790 c-3 -5 -1 -10 4 -10 6 0 11 5 11 10 0 6 -2 10 -4 10 -3 0
-8 -4 -11 -10z"/>
<path d="M278 2735 c-26 -30 -34 -46 -27 -56 6 -10 9 -10 9 -1 0 6 0 14 0 17
1 12 46 49 51 42 3 -4 10 3 16 16 18 39 -8 29 -49 -18z"/>
<path d="M1375 2720 c3 -5 11 -10 16 -10 6 0 7 5 4 10 -3 6 -11 10 -16 10 -6
0 -7 -4 -4 -10z"/>
<path d="M1463 2407 c-21 -19 -45 -36 -55 -40 -13 -5 -15 -12 -8 -44 5 -21 10
-62 11 -91 2 -32 7 -51 13 -49 6 2 22 -3 36 -13 14 -9 39 -16 55 -16 25 1 29
5 27 23 -2 14 4 23 18 28 30 10 7 35 -32 35 -23 0 -29 4 -24 15 4 10 -1 15
-14 15 -11 0 -20 -4 -20 -10 0 -5 -7 -10 -16 -10 -12 0 -15 6 -9 23 3 12 9 32
12 45 3 12 9 22 14 22 5 0 17 8 27 18 10 9 27 22 38 29 19 11 19 11 -1 28 -19
16 -18 16 18 10 23 -4 37 -2 37 5 0 5 -20 10 -45 10 -37 0 -52 -6 -82 -33z"/>
<path d="M195 2192 c1 -40 -2 -75 -7 -78 -4 -3 -8 -35 -7 -72 l0 -67 22 45
c25 53 27 143 5 205 l-15 40 2 -73z"/>
<path d="M111 2124 c0 -11 3 -14 6 -6 3 7 2 16 -1 19 -3 4 -6 -2 -5 -13z"/>
<path d="M1497 2123 c-9 -15 13 -63 28 -63 18 0 38 27 30 40 -3 5 -15 10 -25
10 -10 0 -20 5 -22 12 -3 9 -6 9 -11 1z"/>
<path d="M93 2093 c-7 -3 -13 -11 -13 -18 0 -7 -4 -15 -9 -17 -15 -5 -18 -90
-3 -95 6 -3 12 2 12 11 0 9 4 16 9 16 4 0 6 -11 3 -25 -2 -15 0 -25 7 -25 6 0
11 10 12 23 1 12 2 37 4 55 4 45 -7 80 -22 75z"/>
<path d="M1391 2028 c-1 -21 40 -51 52 -39 14 14 -1 30 -22 24 -13 -3 -21 1
-24 14 -4 15 -5 15 -6 1z"/>
<path d="M1513 2005 c-7 -21 3 -30 20 -17 8 7 18 7 27 2 23 -15 30 -12 30 10
0 16 -7 20 -35 20 -23 0 -38 -6 -42 -15z"/>
<path d="M1480 1995 c-10 -12 -10 -15 4 -15 9 0 16 7 16 15 0 8 -2 15 -4 15
-2 0 -9 -7 -16 -15z"/>
<path d="M112 1921 c-7 -19 -10 -36 -7 -39 6 -7 26 49 22 62 -2 6 -9 -5 -15
-23z"/>
<path d="M1456 1895 c3 -7 1 -16 -5 -20 -16 -9 -13 -25 5 -25 9 0 18 9 21 20
3 11 10 20 15 20 6 0 7 -7 4 -15 -3 -9 1 -18 9 -21 8 -4 15 -12 15 -20 0 -21
42 -1 51 24 10 27 -12 41 -75 46 -34 3 -43 1 -40 -9z"/>
<path d="M250 1860 c0 -5 5 -10 11 -10 5 0 7 5 4 10 -3 6 -8 10 -11 10 -2 0
-4 -4 -4 -10z"/>
<path d="M1360 1818 c0 -9 5 -20 10 -23 6 -3 10 -17 10 -31 0 -13 5 -24 10
-24 6 0 9 21 9 48 -1 26 -3 39 -6 29 -5 -18 -5 -18 -19 0 -12 16 -13 16 -14 1z"/>
<path d="M95 1809 c-4 -6 -5 -12 -2 -15 2 -3 7 2 10 11 7 17 1 20 -8 4z"/>
<path d="M1450 1800 c-12 -8 -12 -10 2 -15 20 -8 41 2 33 16 -8 11 -16 11 -35
-1z"/>
<path d="M446 1775 c-9 -26 -7 -32 5 -12 6 10 9 21 6 23 -2 3 -7 -2 -11 -11z"/>
<path d="M1558 1779 c-10 -5 -18 -18 -18 -28 0 -12 7 -18 18 -17 13 1 19 -9
23 -39 5 -33 6 -29 8 28 1 69 -2 74 -31 56z"/>
<path d="M430 1729 c0 -5 5 -7 10 -4 6 3 10 8 10 11 0 2 -4 4 -10 4 -5 0 -10
-5 -10 -11z"/>
<path d="M381 1609 c-7 -12 -10 -23 -8 -26 3 -3 11 5 17 17 15 28 8 35 -9 9z"/>
<path d="M1572 1220 c0 -14 2 -19 5 -12 2 6 2 18 0 25 -3 6 -5 1 -5 -13z"/>
<path d="M1483 1144 c6 -69 47 -86 47 -20 0 30 -24 66 -44 66 -3 0 -5 -21 -3
-46z"/>
<path d="M1460 1152 c0 -18 5 -32 10 -32 6 0 8 11 4 28 -10 39 -14 40 -14 4z"/>
<path d="M1392 1098 c-13 -35 -5 -52 20 -43 10 4 15 16 13 31 -4 41 -20 47
-33 12z"/>
<path d="M1564 1076 c-8 -22 -1 -59 14 -64 7 -2 12 6 12 21 0 14 -6 28 -12 30
-10 4 -10 6 0 6 14 1 17 21 2 21 -6 0 -13 -6 -16 -14z"/>
<path d="M1511 976 c-7 -8 -9 -25 -5 -41 7 -30 18 -23 28 17 7 31 -6 44 -23
24z"/>
<path d="M1550 885 c-19 -23 -1 -39 21 -19 10 9 19 21 19 26 0 13 -27 9 -40
-7z"/>
<path d="M1464 826 c-4 -10 0 -81 5 -103 1 -2 7 -3 14 -3 6 0 12 11 12 25 0
14 -2 25 -5 25 -3 0 -7 9 -8 20 -5 55 -8 62 -18 36z"/>
<path d="M573 675 c0 -22 2 -30 4 -17 2 12 2 30 0 40 -3 9 -5 -1 -4 -23z"/>
<path d="M1453 619 c-3 -17 -9 -26 -12 -21 -3 5 -16 12 -28 16 -26 8 -42 -14
-35 -50 5 -25 34 -49 46 -37 3 3 6 -1 6 -11 0 -9 -12 -28 -26 -41 -15 -14 -23
-25 -19 -25 4 0 0 -9 -10 -20 -10 -12 -24 -19 -31 -16 -13 5 -43 -22 -43 -39
0 -15 30 -45 45 -45 10 0 13 -25 12 -109 0 -59 2 -113 6 -120 5 -7 -1 -11 -13
-11 -14 0 -19 -5 -15 -15 4 -8 16 -15 29 -15 17 0 26 -8 34 -30 6 -19 17 -30
29 -30 27 0 34 11 19 28 -10 13 -9 14 3 7 13 -7 13 -6 2 7 -10 13 -9 22 5 49
10 19 24 38 31 42 16 11 15 46 -3 77 -17 29 -19 44 -5 35 5 -3 7 0 4 8 -4 10
1 15 13 14 28 -3 24 37 -4 41 -25 4 -28 17 -13 58 6 15 7 30 2 33 -18 12 -20
52 -5 102 13 43 13 53 2 60 -9 6 -10 9 -2 9 7 0 10 11 9 28 -2 15 -4 33 -5 40
-2 24 -22 11 -28 -19z m-33 -569 c0 -5 -4 -10 -10 -10 -5 0 -10 5 -10 10 0 6
5 10 10 10 6 0 10 -4 10 -10z"/>
<path d="M1542 518 c-17 -17 -15 -58 2 -58 32 0 46 13 46 41 0 31 -25 40 -48
17z"/>
<path d="M630 489 c0 -11 -4 -18 -9 -15 -5 4 -7 -12 -4 -36 11 -80 20 -81 20
-4 0 42 -1 76 -3 76 -2 0 -4 -9 -4 -21z"/>
<path d="M41 384 c0 -11 3 -14 6 -6 3 7 2 16 -1 19 -3 4 -6 -2 -5 -13z"/>
<path d="M9 373 c6 -13 8 -23 3 -23 -6 0 -10 -77 -11 -175 l-2 -175 61 0 c38
0 59 4 55 10 -3 6 -1 10 4 10 6 0 11 6 11 14 0 7 9 25 20 39 17 21 18 30 9 56
-6 17 -14 29 -18 26 -4 -2 -23 11 -41 30 -18 19 -37 32 -41 29 -4 -2 -6 5 -4
17 3 13 0 28 -6 36 -6 7 -9 22 -6 33 3 11 1 20 -5 20 -6 0 -8 8 -6 18 3 9 -4
26 -15 37 -20 20 -20 20 -8 -2z"/>
<path d="M1573 373 c-17 -6 -16 -33 2 -57 14 -18 15 -17 15 22 0 23 -1 42 -2
41 -2 0 -9 -3 -15 -6z"/>
<path d="M1215 270 c-16 -18 -17 -21 -1 -45 16 -24 63 -35 79 -19 9 9 -12 47
-38 66 -22 16 -24 16 -40 -2z"/>
<path d="M130 233 c0 -5 7 -18 15 -29 13 -18 14 -18 8 4 -5 22 -23 41 -23 25z"/>
<path d="M272 176 c-8 -19 -8 -25 3 -29 16 -7 44 23 38 41 -8 20 -29 14 -41
-12z"/>
<path d="M1030 180 c0 -6 7 -10 15 -10 8 0 15 2 15 4 0 2 -7 6 -15 10 -8 3
-15 1 -15 -4z"/>
<path d="M611 166 c-27 -32 20 -61 59 -36 12 7 12 12 -4 29 -22 24 -39 27 -55
7z"/>
<path d="M1249 130 c-24 -20 -24 -20 -5 -35 11 -8 27 -15 35 -15 14 0 14 -2 1
-11 -12 -9 -11 -10 8 -6 13 3 22 0 22 -7 0 -7 -11 -12 -24 -12 -14 0 -23 3
-21 6 2 3 0 12 -6 20 -7 12 -9 10 -9 -9 0 -20 -4 -22 -26 -17 -18 5 -24 3 -18
-5 5 -8 2 -9 -11 -2 -10 6 -32 7 -51 3 -19 -4 -32 -4 -29 0 3 4 -2 10 -10 14
-8 3 -15 1 -15 -4 0 -16 -27 -11 -34 5 -3 8 -13 15 -23 14 -17 0 -17 -1 0 -8
15 -6 16 -9 5 -17 -7 -6 -21 -14 -30 -17 -10 -4 -18 -11 -18 -17 0 -6 64 -10
185 -10 l184 0 -8 22 c-5 13 -15 22 -21 20 -7 -2 -10 3 -7 12 4 9 2 18 -4 21
-5 4 -3 13 6 22 14 14 14 17 -1 34 -22 24 -46 24 -75 -1z"/>
<path d="M224 116 c22 -18 66 -22 66 -6 0 6 -8 10 -17 10 -10 0 -29 3 -43 6
-24 5 -24 5 -6 -10z"/>
<path d="M386 115 c-3 -8 -15 -15 -27 -15 l-22 0 23 -20 c13 -11 28 -20 35
-20 20 0 46 36 39 54 -8 20 -40 21 -48 1z"/>
<path d="M195 100 c3 -5 10 -10 16 -10 5 0 9 5 9 10 0 6 -7 10 -16 10 -8 0
-12 -4 -9 -10z"/>
<path d="M1172 99 c-41 -8 -51 -17 -32 -29 28 -18 100 -9 100 11 0 5 -6 9 -14
9 -8 0 -16 4 -18 8 -1 5 -18 5 -36 1z"/>
<path d="M1524 96 c-22 -17 -15 -28 22 -32 29 -3 45 23 23 37 -19 12 -22 11
-45 -5z"/>
<path d="M790 40 c-20 -12 -3 -40 24 -40 28 0 41 14 29 32 -9 15 -36 19 -53 8z"/>
<path d="M947 37 c-3 -8 3 -14 16 -15 12 0 17 2 12 6 -6 4 -13 11 -16 15 -4 4
-9 2 -12 -6z"/>
<path d="M157 25 c-4 -8 -2 -17 3 -20 6 -4 10 3 10 14 0 25 -6 27 -13 6z"/>
<path d="M243 25 c-19 -21 -16 -25 18 -25 24 0 30 3 25 16 -3 9 -6 18 -6 20 0
10 -26 2 -37 -11z"/>
<path d="M477 24 c-16 -16 -5 -24 34 -24 28 0 39 4 37 13 -5 13 -60 22 -71 11z"/>
<path d="M683 3 c9 -2 23 -2 30 0 6 3 -1 5 -18 5 -16 0 -22 -2 -12 -5z"/>
</g>
</svg>
