<?xml version="1.0" standalone="no"?>
<!DOCTYPE svg PUBLIC "-//W3C//DTD SVG 20010904//EN"
 "http://www.w3.org/TR/2001/REC-SVG-20010904/DTD/svg10.dtd">
<svg version="1.0" xmlns="http://www.w3.org/2000/svg"
 width="225.000000pt" height="225.000000pt" viewBox="0 0 225.000000 225.000000"
 preserveAspectRatio="xMidYMid meet">

<g transform="translate(0.000000,225.000000) scale(0.100000,-0.100000)"
fill="#000000" stroke="none">
<path d="M663 2207 c206 -115 259 -266 138 -387 -25 -25 -82 -66 -127 -92
-139 -80 -191 -161 -182 -282 12 -143 112 -269 280 -350 159 -78 258 -84 370
-24 101 54 150 122 219 305 38 102 103 179 181 214 73 33 216 33 298 1 108
-44 191 -125 220 -217 7 -22 17 -51 22 -65 9 -23 10 -24 20 -5 6 10 12 44 12
75 2 171 -166 300 -377 288 -135 -8 -238 -64 -437 -240 -202 -178 -255 -208
-374 -215 -200 -12 -405 164 -365 312 17 60 73 108 172 145 164 62 227 135
227 265 -1 141 -77 228 -249 284 -96 31 -116 26 -48 -12z"/>
<path d="M643 2175 c60 -46 87 -91 87 -146 -1 -91 -60 -164 -228 -282 -96 -67
-167 -144 -200 -217 -34 -74 -35 -189 -3 -273 48 -124 168 -236 345 -322 139
-68 249 -87 380 -65 148 24 217 89 320 302 41 84 88 172 105 196 66 90 180
133 298 114 75 -13 163 -51 198 -86 27 -27 94 -60 103 -51 10 10 -53 87 -97
119 -101 73 -194 106 -304 106 -145 0 -210 -59 -303 -272 -40 -91 -60 -123
-104 -168 -68 -69 -147 -115 -235 -137 -58 -14 -78 -15 -138 -5 -147 26 -330
155 -393 279 -23 47 -30 74 -32 139 -6 139 33 201 205 331 127 95 156 128 174
194 25 95 -32 189 -153 250 -75 38 -81 37 -25 -6z"/>
<path d="M685 1590 c-38 -15 -67 -57 -72 -104 -17 -150 199 -290 379 -245 l53
13 -65 7 c-130 14 -275 108 -298 193 -13 44 -1 90 30 123 23 24 12 30 -27 13z"/>
<path d="M1659 1436 c-97 -35 -164 -102 -260 -265 -103 -174 -161 -242 -273
-320 -167 -116 -342 -119 -564 -10 -169 82 -290 216 -329 364 l-13 50 4 -80
c10 -200 119 -365 299 -454 265 -130 470 -87 726 153 l44 41 -32 -48 c-110
-163 -295 -277 -451 -277 -103 0 -252 58 -376 145 -135 96 -226 238 -244 382
l-7 58 -2 -49 c-3 -140 107 -356 237 -462 215 -176 515 -203 742 -66 84 51
157 127 214 222 26 44 49 80 51 80 10 0 -30 -113 -66 -188 -70 -149 -210 -261
-352 -281 -214 -30 -512 93 -666 278 -50 60 -124 184 -168 281 -38 84 -37 56
4 -75 64 -206 180 -377 352 -515 47 -38 115 -95 151 -125 74 -63 216 -138 305
-160 32 -8 101 -15 151 -15 112 0 192 22 266 75 l53 38 -35 -37 c-53 -57 -161
-106 -245 -112 -39 -3 -90 -1 -115 5 -71 16 -58 5 27 -23 263 -86 437 -40 519
138 40 88 56 168 52 271 l-3 95 70 0 c39 0 88 5 110 11 35 10 38 12 22 24 -29
21 -295 106 -360 115 -32 5 -61 10 -62 12 -2 2 0 60 4 129 5 91 12 134 24 152
17 27 87 81 72 56 -7 -12 -6 -11 10 1 17 14 18 13 11 -33 -8 -52 -2 -56 48
-37 34 12 34 49 1 80 -19 18 -22 26 -14 37 9 10 4 13 -25 13 -41 0 -46 15 -20
55 10 15 26 25 41 25 23 0 83 -25 83 -35 0 -3 -15 -14 -32 -25 -40 -24 -31
-26 17 -3 62 30 36 79 -41 77 l-43 -1 29 43 c35 51 99 106 148 130 28 13 52
15 111 11 l75 -6 -30 20 c-67 45 -175 60 -245 35z m-163 -965 c-25 -48 -116
-141 -189 -192 -179 -126 -391 -125 -608 2 -37 21 -71 44 -75 50 -4 6 14 0 38
-15 138 -80 341 -108 492 -67 121 33 172 64 266 161 47 48 86 88 88 89 1 1 -4
-12 -12 -28z"/>
<path d="M1875 1186 c-16 -11 -11 -14 47 -18 36 -3 81 -13 99 -22 37 -19 39
-19 39 -7 0 15 -102 61 -135 61 -17 0 -39 -6 -50 -14z"/>
<path d="M1845 1091 c-3 -5 2 -16 10 -24 8 -9 15 -21 15 -28 0 -8 3 -9 14 0
10 9 16 8 26 -4 10 -12 15 -13 20 -4 5 7 13 8 21 3 21 -12 44 -12 57 2 9 10 8
14 -6 17 -9 3 -38 10 -65 17 -26 7 -50 17 -53 21 -7 12 -31 11 -39 0z"/>
<path d="M1650 1031 c0 -16 41 -61 56 -61 23 0 16 27 -12 49 -28 22 -44 27
-44 12z"/>
<path d="M1526 911 c-14 -15 -15 -21 -4 -27 7 -4 10 -3 5 1 -4 5 0 17 10 27 9
10 14 18 11 18 -3 0 -13 -9 -22 -19z"/>
<path d="M1655 901 c11 -13 19 -26 18 -30 -2 -3 1 -6 5 -6 5 0 16 -8 26 -17
16 -17 26 -22 26 -15 0 2 -21 23 -47 47 -26 25 -39 34 -28 21z"/>
<path d="M1558 893 c7 -3 16 -2 19 1 4 3 -2 6 -13 5 -11 0 -14 -3 -6 -6z"/>
<path d="M1608 893 c7 -3 16 -2 19 1 4 3 -2 6 -13 5 -11 0 -14 -3 -6 -6z"/>
<path d="M1479 853 c-13 -16 -12 -17 4 -4 16 13 21 21 13 21 -2 0 -10 -8 -17
-17z"/>
<path d="M1528 813 c6 -2 18 -2 25 0 6 3 1 5 -13 5 -14 0 -19 -2 -12 -5z"/>
</g>
</svg>
