<?xml version="1.0" standalone="no"?>
<!DOCTYPE svg PUBLIC "-//W3C//DTD SVG 20010904//EN"
 "http://www.w3.org/TR/2001/REC-SVG-20010904/DTD/svg10.dtd">
<svg version="1.0" xmlns="http://www.w3.org/2000/svg"
 width="225.000000pt" height="225.000000pt" viewBox="0 0 225.000000 225.000000"
 preserveAspectRatio="xMidYMid meet">

<g transform="translate(0.000000,225.000000) scale(0.100000,-0.100000)"
fill="#000000" stroke="none">
<path d="M737 2240 c-192 -49 -340 -250 -435 -588 -23 -83 -27 -115 -26 -227
0 -107 -2 -132 -15 -142 -14 -10 -14 -16 -2 -45 22 -55 25 -88 8 -88 -8 0 -25
-8 -37 -18 l-22 -18 26 -31 c14 -17 26 -35 26 -39 0 -5 -16 -20 -36 -33 -38
-26 -64 -67 -64 -101 0 -31 16 -57 78 -130 97 -114 101 -154 26 -246 -115
-140 -114 -167 12 -286 67 -63 82 -103 58 -154 -10 -20 -36 -50 -58 -66 -39
-28 -40 -29 -11 -22 156 37 210 136 173 314 -11 57 -11 57 29 132 65 121 85
182 82 263 -1 40 4 83 11 101 11 26 11 39 -3 79 -15 48 -15 49 9 80 48 63 48
158 -1 278 l-27 68 25 42 c14 23 59 111 101 195 l77 152 41 0 c22 0 55 7 74
16 43 21 123 108 164 179 17 30 33 55 36 55 14 0 74 -151 98 -245 35 -144 34
-160 -28 -305 -63 -146 -86 -224 -86 -285 0 -39 53 -182 82 -224 15 -21 16
-21 46 26 19 29 28 51 22 57 -6 6 2 23 18 45 42 54 100 174 117 238 24 90 2
184 -79 341 -26 52 -35 84 -39 139 -17 219 -112 405 -242 468 -59 29 -165 41
-228 25z"/>
<path d="M1837 1522 c-101 -154 -195 -286 -207 -295 -13 -9 -82 -30 -155 -47
-72 -17 -136 -34 -141 -38 -6 -4 -32 -38 -58 -77 l-47 -70 22 -15 c12 -8 102
-68 200 -132 l178 -117 44 67 c24 37 47 72 51 79 3 6 -1 71 -9 144 -10 85 -13
141 -7 158 5 14 93 152 195 306 l186 279 -27 18 c-15 10 -30 18 -34 18 -4 0
-90 -125 -191 -278z"/>
<path d="M1177 843 c-41 -59 -72 -112 -69 -117 2 -4 14 6 25 24 12 18 23 28
25 22 4 -14 22 -6 22 9 0 6 -4 7 -10 4 -5 -3 -10 -2 -10 4 0 5 5 13 10 16 6 3
10 1 10 -5 0 -6 5 -8 10 -5 6 3 10 11 10 16 0 6 -4 7 -10 4 -18 -11 -10 9 16
40 17 20 22 24 17 10 -6 -18 -5 -19 12 -5 11 9 4 -8 -16 -40 -19 -30 -39 -61
-43 -69 -7 -10 -10 -10 -16 -1 -6 9 -11 6 -20 -10 -11 -20 -10 -25 5 -37 12
-8 22 -9 30 -3 7 5 14 7 17 4 3 -3 9 0 14 7 5 8 3 10 -6 4 -8 -5 -11 -3 -8 5
4 14 38 24 38 11 0 -16 -32 -51 -43 -45 -7 3 -3 -2 7 -10 16 -13 22 -13 35 -3
12 10 14 9 8 -8 -6 -16 -3 -15 13 5 21 27 26 21 9 -12 -9 -16 -8 -19 2 -13 9
6 11 3 6 -11 -5 -14 -2 -12 13 6 21 27 26 21 9 -12 -6 -12 -7 -18 -1 -14 5 3
13 -1 16 -10 4 -9 11 -12 18 -7 21 12 39 12 35 0 -3 -7 -10 -11 -16 -9 -7 1
-10 -2 -6 -8 3 -6 12 -7 18 -3 20 12 38 12 34 0 -3 -7 -10 -11 -16 -9 -7 1
-10 -2 -6 -8 3 -6 12 -7 18 -3 19 12 58 11 54 -1 -2 -6 -13 -10 -25 -10 -12 1
-19 -3 -16 -7 3 -5 9 -7 14 -4 4 3 10 -1 13 -7 6 -17 3 -20 84 102 l70 106
-135 89 c-74 50 -147 98 -162 108 l-28 18 -75 -108z m85 5 c-16 -16 -15 -31 1
-21 22 14 36 12 30 -5 -4 -10 -2 -13 5 -8 8 5 10 1 5 -11 -6 -16 -5 -17 12 -3
16 13 16 10 -3 -17 -30 -42 -27 -55 4 -18 17 20 22 24 17 10 -6 -18 -5 -19 11
-6 14 12 13 7 -4 -23 -13 -20 -25 -34 -28 -31 -3 3 0 11 6 17 7 7 12 17 12 22
0 6 -9 0 -20 -14 -21 -27 -26 -45 -10 -35 6 3 10 2 10 -4 0 -5 -4 -13 -10 -16
-5 -3 -10 -1 -10 5 0 6 -4 9 -9 5 -5 -3 -13 4 -16 16 -7 21 -8 20 -27 -10 -11
-18 -23 -30 -25 -27 -3 3 4 18 16 34 26 37 26 42 1 37 -21 -4 -27 9 -10 20 6
3 10 0 10 -7 0 -7 7 -3 15 9 8 12 12 29 9 38 -5 12 -17 1 -47 -45 -23 -35 -43
-57 -45 -51 -2 6 -8 9 -13 5 -5 -3 -9 -1 -9 5 0 15 18 23 22 10 2 -6 25 21 51
60 26 39 50 71 54 71 4 0 2 -5 -5 -12z m-20 -70 c-7 -7 -12 -8 -12 -2 0 14 12
26 19 19 2 -3 -1 -11 -7 -17z m137 -45 c-29 -49 -39 -60 -39 -44 0 7 -4 9 -10
6 -5 -3 -10 -11 -10 -16 0 -6 5 -7 10 -4 6 3 10 2 10 -4 0 -5 -4 -13 -10 -16
-5 -3 -10 -1 -10 5 0 6 -4 8 -10 5 -18 -11 -11 6 22 51 34 48 40 53 32 27 -4
-13 0 -11 12 5 26 35 28 26 3 -15z m34 12 c-3 -10 0 -15 8 -13 9 2 13 -4 11
-16 -3 -17 -1 -18 11 -7 11 8 17 9 22 1 4 -6 1 -9 -6 -8 -6 2 -13 -2 -16 -9
-2 -7 3 -10 14 -8 10 2 18 4 18 5 0 7 36 6 41 -1 3 -5 0 -8 -7 -7 -6 2 -14 -3
-17 -11 -3 -9 0 -11 8 -6 10 6 10 3 2 -10 -11 -20 -46 -30 -39 -12 3 7 9 11
15 10 6 -2 9 4 5 13 -5 13 -7 13 -14 2 -7 -10 -9 -10 -9 1 0 11 -4 9 -15 -5
-15 -19 -20 -10 -16 25 2 7 -3 10 -9 6 -6 -4 -8 -16 -5 -28 5 -19 4 -19 -9 3
-10 15 -15 19 -16 10 0 -11 -2 -12 -8 -3 -6 9 -13 3 -26 -18 -10 -17 -20 -28
-23 -25 -4 4 77 126 84 126 1 0 0 -7 -4 -15z m-161 -57 c-7 -7 -12 -8 -12 -2
0 14 12 26 19 19 2 -3 -1 -11 -7 -17z m30 -30 c-7 -7 -12 -8 -12 -2 0 14 12
26 19 19 2 -3 -1 -11 -7 -17z m122 -5 c3 -8 11 -11 17 -7 7 4 10 2 7 -6 -2 -7
-12 -14 -22 -16 -11 -2 -16 2 -12 11 3 9 -1 12 -15 10 -10 -2 -19 0 -19 4 0
22 36 25 44 4z m52 -10 c0 -10 5 -17 12 -15 8 1 12 -3 10 -10 -4 -10 -58 -21
-58 -11 0 5 32 53 35 53 2 0 2 -8 1 -17z m-132 -34 c-5 -8 -10 -6 -16 5 -5 9
-6 21 -2 27 5 8 10 6 16 -5 5 -9 6 -21 2 -27z m60 14 c3 -8 10 -12 15 -9 5 3
11 -1 14 -9 4 -8 15 -12 27 -10 13 3 20 0 18 -7 -6 -17 -56 -17 -62 -1 -3 8
-10 12 -15 9 -5 -3 -12 1 -15 10 -3 8 -10 12 -16 9 -10 -6 -14 7 -5 17 10 10
34 4 39 -9z"/>
<path d="M1266 821 c-4 -6 -4 -16 -1 -21 4 -6 2 -17 -4 -24 -9 -10 -9 -21 0
-40 12 -26 35 -26 25 1 -4 9 -1 21 4 29 8 9 7 20 -3 40 -9 17 -17 23 -21 15z
m14 -51 c-6 -11 -13 -20 -16 -20 -2 0 0 9 6 20 6 11 13 20 16 20 2 0 0 -9 -6
-20z"/>
<path d="M1347 723 c-4 -3 -7 -11 -7 -17 0 -6 5 -5 12 2 6 6 9 14 7 17 -3 3
-9 2 -12 -2z"/>
<path d="M1390 709 c-8 -13 -6 -17 6 -15 22 3 38 33 18 33 -8 0 -19 -8 -24
-18z"/>
<path d="M1207 843 c-4 -3 -7 -11 -7 -17 0 -6 5 -5 12 2 6 6 9 14 7 17 -3 3
-9 2 -12 -2z"/>
<path d="M1104 635 c-16 -65 43 -229 110 -302 19 -22 55 -50 79 -63 43 -23 44
-24 39 -65 -2 -23 1 -52 7 -63 23 -44 95 -36 127 13 15 23 16 33 6 76 -11 45
-10 53 9 78 29 39 29 108 0 155 l-23 36 -18 -22 -18 -23 -128 86 c-207 137
-182 125 -190 94z"/>
</g>
</svg>
