<?xml version="1.0" standalone="no"?>
<!DOCTYPE svg PUBLIC "-//W3C//DTD SVG 20010904//EN"
 "http://www.w3.org/TR/2001/REC-SVG-20010904/DTD/svg10.dtd">
<svg version="1.0" xmlns="http://www.w3.org/2000/svg"
 width="64.000000pt" height="64.000000pt" viewBox="0 0 64.000000 64.000000"
 preserveAspectRatio="xMidYMid meet">

<g transform="translate(0.000000,64.000000) scale(0.100000,-0.100000)"
fill="#000000" stroke="none">
<path d="M185 568 c-11 -6 -27 -14 -35 -18 -8 -4 -17 -17 -18 -30 -2 -13 -14
-32 -25 -42 l-22 -18 23 -19 c12 -11 22 -25 22 -31 0 -6 -10 -20 -22 -31 l-23
-19 23 -19 c12 -11 22 -25 22 -31 0 -6 -10 -20 -22 -31 l-23 -19 22 -19 c29
-24 29 -38 1 -62 l-23 -19 22 -19 c13 -11 23 -28 23 -38 0 -39 17 -43 200 -43
124 0 180 4 188 12 7 7 12 39 12 74 0 35 5 66 10 69 14 9 13 51 -2 75 -10 16
-10 24 0 40 15 24 16 66 2 75 -5 3 -10 25 -10 47 0 33 -7 48 -32 74 -33 34
-33 34 -130 34 -54 0 -100 4 -103 10 -8 13 -55 12 -80 -2z m65 -43 c0 -28 -4
-35 -20 -35 -16 0 -20 7 -20 35 0 28 4 35 20 35 16 0 20 -7 20 -35z m-58 -17
c3 -30 6 -33 38 -33 32 0 35 3 38 33 l3 32 100 0 99 0 0 -230 0 -230 -160 0
-160 0 0 230 c0 221 1 230 19 230 15 0 21 -8 23 -32z m318 -53 c0 -25 -4 -45
-10 -45 -5 0 -10 20 -10 45 0 25 5 45 10 45 6 0 10 -20 10 -45z m-380 5 c0 -5
-4 -10 -10 -10 -5 0 -10 5 -10 10 0 6 5 10 10 10 6 0 10 -4 10 -10z m400 -90
c0 -13 -7 -20 -20 -20 -13 0 -20 7 -20 20 0 13 7 20 20 20 13 0 20 -7 20 -20z
m-400 -10 c0 -5 -4 -10 -10 -10 -5 0 -10 5 -10 10 0 6 5 10 10 10 6 0 10 -4
10 -10z m380 -50 c0 -11 -4 -20 -10 -20 -5 0 -10 9 -10 20 0 11 5 20 10 20 6
0 10 -9 10 -20z m-380 -50 c0 -5 -4 -10 -10 -10 -5 0 -10 5 -10 10 0 6 5 10
10 10 6 0 10 -4 10 -10z m400 -10 c0 -13 -7 -20 -20 -20 -13 0 -20 7 -20 20 0
13 7 20 20 20 13 0 20 -7 20 -20z m-20 -105 c0 -37 -4 -65 -10 -65 -6 0 -10
28 -10 65 0 37 4 65 10 65 6 0 10 -28 10 -65z m-380 15 c0 -5 -4 -10 -10 -10
-5 0 -10 5 -10 10 0 6 5 10 10 10 6 0 10 -4 10 -10z"/>
<path d="M194 436 c-3 -7 -4 -33 -2 -57 l3 -44 115 0 115 0 0 55 0 55 -113 3
c-90 2 -113 0 -118 -12z m216 -46 l0 -40 -100 0 -100 0 0 40 0 40 100 0 100 0
0 -40z"/>
<path d="M190 300 c0 -5 9 -10 20 -10 11 0 20 5 20 10 0 6 -9 10 -20 10 -11 0
-20 -4 -20 -10z"/>
<path d="M250 300 c0 -6 37 -10 90 -10 53 0 90 4 90 10 0 6 -37 10 -90 10 -53
0 -90 -4 -90 -10z"/>
<path d="M190 260 c0 -5 9 -10 20 -10 11 0 20 5 20 10 0 6 -9 10 -20 10 -11 0
-20 -4 -20 -10z"/>
<path d="M250 260 c0 -6 37 -10 90 -10 53 0 90 4 90 10 0 6 -37 10 -90 10 -53
0 -90 -4 -90 -10z"/>
<path d="M190 220 c0 -5 9 -10 20 -10 11 0 20 5 20 10 0 6 -9 10 -20 10 -11 0
-20 -4 -20 -10z"/>
<path d="M250 220 c0 -6 30 -10 70 -10 40 0 70 4 70 10 0 6 -30 10 -70 10 -40
0 -70 -4 -70 -10z"/>
</g>
</svg>
